<svg class="svgicon svgicon-logo" xmlns="http://www.w3.org/2000/svg" width="657.14" height="64" viewBox="0 0 657.14 64"><style type="text/css">.color-black{fill:#221F1F;}.color-red{fill:#9A1E23;}</style><path class="color-black" d="M221.86,11.75c-0.5,0-0.96,0-1.43,0.04c-15.53,0.77-22.62,13.56-22.62,25.16c0,14.22,8.25,22.96,22.58,23.97c1,0.08,2,0.12,2.89,0.12c6.36,0,12.21-1,16.99-2.85l-1.85-9.09c-3.97,1.31-8.01,1.89-12.98,1.89c-2,0-3.74-0.19-5.2-0.58c-5.39-1.27-8.71-4.62-9.05-9.13l-0.04-0.58l31.48,0.12c0.15-1.08,0.39-3.12,0.39-5.47C243.02,23.93,237.47,11.75,221.86,11.75 M230.18,31.52h-19.61l0.08-0.58c0.39-3.66,3.35-9.67,9.75-10.21l0.89-0.04c6.59,0,8.94,5.55,8.94,10.33L230.18,31.52L230.18,31.52z"></path><path class="color-black" d="M179.21,60.07h13.91v-27.9c0-12.91-6.09-20.31-16.72-20.31c-11.44,0-15.64,10.33-15.64,10.33l-0.73-9.25h-11.94c0.19,4.35,0.35,9.17,0.35,14.83v32.25h13.91V32.52c0-1.77,0.15-3.01,0.5-3.89c0.73-1.81,3.01-5.97,8.21-5.97c3.7,0,8.13,1.93,8.13,10.98v26.43H179.21z"></path><path class="color-black" d="M0,22.96h6.43v20.31c0,6.59,1.31,11.14,3.97,13.91c2.62,2.54,6.63,4.01,10.98,4.01c4.08,0,7.36-0.62,9.13-1.19L30.44,49.7c-1.16,0.23-2.16,0.27-3.89,0.27c-4.59,0-6.47-2.62-6.47-9.02V22.96h11.29l13.56,37.11h14.26l17.49-47.08H62.03l-6.09,21.96c-0.96,3.66-3.12,12.6-3.12,12.6s-2.35-8.28-3.58-12.6l-6.47-21.96H20V0L6.43,3.74v9.21H0V22.96z"></path><path class="color-red" d="M135.82,17.61l-14.68,39.22h-14.56l14.76-39.3h-9.05l14.6-9.29c-4.89-3.31-10.79-5.28-17.15-5.28c-16.84,0-30.52,13.64-30.52,30.52C79.22,50.32,92.86,64,109.74,64c16.84,0,30.52-13.64,30.52-30.52C140.29,27.67,138.67,22.23,135.82,17.61z"></path><path class="color-black" d="M251.52,60.06V12.72h12.83v6.42c1.56-2.53,3.53-4.39,5.93-5.59c2.4-1.2,5.02-1.8,7.87-1.8c3.05,0,5.65,0.65,7.82,1.94c2.17,1.3,3.94,3.03,5.3,5.2c1.36,2.17,2.36,4.7,3.01,7.58c0.65,2.88,0.97,5.88,0.97,8.99v24.59h-13.32V35.37c0-4.28-0.67-7.52-1.99-9.72c-1.33-2.2-3.52-3.31-6.56-3.31c-1.94,0-3.63,0.45-5.05,1.36c-1.43,0.91-2.59,1.98-3.5,3.21v33.14H251.52z"></path><path class="color-black" d="M325.2,11.75c3.11,0,5.88,0.49,8.31,1.46c2.43,0.97,4.45,2.35,6.08,4.13c1.62,1.78,2.85,3.92,3.69,6.42c0.84,2.49,1.26,5.3,1.26,8.41c0,1.3-0.08,2.61-0.24,3.94c-0.16,1.33-0.41,2.54-0.73,3.65h-28.09c0.13,3.5,1.2,6.29,3.21,8.36c2.01,2.07,5.22,3.11,9.62,3.11c2.53,0,4.99-0.24,7.39-0.73c2.4-0.49,4.54-1.18,6.42-2.09l1.65,9.04c-2.33,1.17-4.99,2.06-7.97,2.67c-2.98,0.61-6.06,0.92-9.23,0.92c-3.95,0-7.45-0.58-10.5-1.75c-3.05-1.17-5.62-2.82-7.73-4.96c-2.11-2.14-3.71-4.71-4.81-7.73c-1.1-3.01-1.65-6.33-1.65-9.96c0-3.69,0.53-7.08,1.6-10.16c1.07-3.08,2.61-5.7,4.62-7.87c2.01-2.17,4.45-3.85,7.34-5.05C318.31,12.35,321.57,11.75,325.2,11.75z M324.42,20.69c-2.72,0-4.81,0.96-6.27,2.87c-1.46,1.91-2.32,4.33-2.58,7.24h16.23c0.32-3.05-0.13-5.49-1.36-7.34C329.22,21.62,327.21,20.69,324.42,20.69z"></path><path class="color-black" d="M400.43,43.93l7.68-31.2h12.73l-13.61,47.34h-12.44l-11.28-33.34l-11.28,33.34H359.8l-13.61-47.34h12.73l7.68,31.2l10.4-31.2h13.02L400.43,43.93z"></path><path class="color-black" d="M458.46,45.29c0,2.53-0.52,4.78-1.56,6.76c-1.04,1.98-2.46,3.63-4.28,4.96c-1.81,1.33-3.95,2.33-6.41,3.01c-2.46,0.68-5.15,1.02-8.07,1.02c-2.46,0-5.14-0.28-8.02-0.83c-2.88-0.55-5.4-1.28-7.53-2.19l1.94-9.43c2.07,0.84,4.21,1.51,6.42,1.99c2.2,0.49,4.44,0.73,6.71,0.73c2.2,0,4.03-0.32,5.49-0.97c1.46-0.65,2.19-1.81,2.19-3.5c0-1.49-0.71-2.58-2.14-3.26c-1.43-0.68-3.3-1.51-5.64-2.48c-1.88-0.78-3.69-1.57-5.44-2.38c-1.75-0.81-3.29-1.78-4.62-2.92c-1.33-1.13-2.4-2.46-3.21-3.99c-0.81-1.52-1.22-3.42-1.22-5.69c0-2.46,0.47-4.6,1.41-6.41c0.94-1.81,2.24-3.31,3.89-4.47c1.65-1.17,3.6-2.04,5.83-2.62c2.24-0.58,4.65-0.87,7.24-0.87c2.72,0,5.33,0.24,7.82,0.73c2.49,0.49,4.91,1.35,7.24,2.58l-2.04,9.43c-1.88-0.84-3.84-1.54-5.88-2.09c-2.04-0.55-4.1-0.83-6.17-0.83c-1.88,0-3.39,0.21-4.52,0.63c-1.13,0.42-1.7,1.31-1.7,2.67c0,1.3,0.68,2.27,2.04,2.92c1.36,0.65,2.98,1.39,4.86,2.24c1.36,0.58,2.93,1.25,4.71,1.99c1.78,0.75,3.45,1.7,5.01,2.87c1.56,1.17,2.88,2.58,3.99,4.23C457.91,40.77,458.46,42.82,458.46,45.29z"></path><path class="color-black" d="M464.58,53.06c0-2.07,0.66-3.87,1.99-5.39c1.33-1.52,3.22-2.28,5.69-2.28c2.46,0,4.36,0.76,5.69,2.28c1.33,1.52,1.99,3.32,1.99,5.39c0,2.07-0.67,3.89-1.99,5.44c-1.33,1.56-3.22,2.33-5.69,2.33c-2.46,0-4.36-0.78-5.69-2.33C465.25,56.95,464.58,55.14,464.58,53.06z"></path><path class="color-black" d="M511.34,11.75c2.33,0,4.75,0.24,7.24,0.73c2.49,0.49,4.58,1.18,6.27,2.09l-1.46,9.53c-3.05-1.36-6.41-2.04-10.11-2.04c-4.67,0-8.1,1.28-10.3,3.84c-2.2,2.56-3.31,6.04-3.31,10.45c0,4.41,1.1,7.91,3.31,10.5c2.2,2.59,5.64,3.89,10.3,3.89c3.69,0,7.06-0.68,10.11-2.04l1.46,9.53c-1.69,0.91-3.78,1.6-6.27,2.09c-2.5,0.49-4.91,0.73-7.24,0.73c-4.08,0-7.68-0.63-10.79-1.9c-3.11-1.26-5.72-3-7.82-5.2c-2.11-2.2-3.69-4.81-4.76-7.82c-1.07-3.01-1.6-6.27-1.6-9.77c0-3.5,0.54-6.76,1.6-9.77c1.07-3.01,2.66-5.6,4.76-7.78c2.11-2.17,4.71-3.89,7.82-5.15C503.66,12.38,507.25,11.75,511.34,11.75z"></path><path class="color-black" d="M577.24,36.44c0,3.44-0.53,6.64-1.6,9.62c-1.07,2.98-2.64,5.59-4.71,7.82c-2.07,2.24-4.62,3.99-7.63,5.25c-3.01,1.26-6.5,1.9-10.45,1.9c-3.95,0-7.44-0.63-10.45-1.9c-3.01-1.26-5.56-3.01-7.63-5.25c-2.07-2.24-3.64-4.84-4.71-7.82c-1.07-2.98-1.6-6.19-1.6-9.62c0-3.43,0.53-6.64,1.6-9.62c1.07-2.98,2.64-5.59,4.71-7.82c2.07-2.24,4.62-4,7.63-5.3c3.01-1.3,6.5-1.94,10.45-1.94c3.95,0,7.44,0.65,10.45,1.94c3.01,1.3,5.56,3.06,7.63,5.3c2.07,2.24,3.64,4.85,4.71,7.82C576.7,29.8,577.24,33.01,577.24,36.44z M563.92,36.44c0-1.94-0.19-3.81-0.58-5.59c-0.39-1.78-1.02-3.35-1.9-4.71c-0.87-1.36-2.03-2.45-3.45-3.26c-1.43-0.81-3.14-1.22-5.15-1.22c-2.07,0-3.81,0.41-5.2,1.22c-1.39,0.81-2.53,1.9-3.4,3.26c-0.87,1.36-1.51,2.93-1.9,4.71c-0.39,1.78-0.58,3.64-0.58,5.59c0,1.94,0.19,3.79,0.58,5.54c0.39,1.75,1.02,3.3,1.9,4.67c0.87,1.36,2.01,2.45,3.4,3.26c1.39,0.81,3.13,1.22,5.2,1.22c2.01,0,3.73-0.4,5.15-1.22c1.42-0.81,2.58-1.9,3.45-3.26c0.87-1.36,1.51-2.92,1.9-4.67C563.73,40.23,563.92,38.39,563.92,36.44z"></path><path class="color-black" d="M635.75,22.35c-2.07,0-3.87,0.58-5.39,1.75c-1.52,1.17-2.74,2.4-3.65,3.69c0.19,1.17,0.36,2.41,0.49,3.74c0.13,1.33,0.19,2.64,0.19,3.94v24.59h-13.32V35.37c0-4.41-0.62-7.68-1.85-9.82c-1.23-2.14-3.31-3.21-6.22-3.21c-2.01,0-3.68,0.45-5.01,1.36c-1.33,0.91-2.45,1.98-3.35,3.21v33.14h-13.32V12.72h12.83v6.42c1.56-2.53,3.53-4.39,5.93-5.59c2.4-1.2,5.02-1.8,7.87-1.8c3.31,0,6.03,0.75,8.17,2.24c2.14,1.49,3.85,3.47,5.15,5.93c2.14-2.98,4.54-5.09,7.19-6.32c2.66-1.23,5.64-1.85,8.94-1.85c3.04,0,5.62,0.6,7.73,1.8c2.1,1.2,3.82,2.87,5.15,5.01c1.33,2.14,2.3,4.65,2.92,7.53c0.61,2.88,0.92,6.01,0.92,9.38v24.59h-13.32V35.37c0-4.41-0.62-7.68-1.85-9.82C640.74,23.42,638.67,22.35,635.75,22.35z"></path></svg>