<?xml version="1.0" encoding="utf-8"?>
<!-- Generator: Adobe Illustrator 27.8.1, SVG Export Plug-In . SVG Version: 6.00 Build 0)  -->
<svg version="1.1" id="Layer_1" xmlns="http://www.w3.org/2000/svg" xmlns:xlink="http://www.w3.org/1999/xlink" x="0px" y="0px"
	 viewBox="0 0 500 169.5" style="enable-background:new 0 0 500 169.5;" xml:space="preserve">
<style type="text/css">
	.st0{clip-path:url(#SVGID_00000008144600189655154130000016758614619108018336_);}
	.st1{fill:#2493FE;}
	.st2{fill:#174B94;}
	.st3{fill:#164B93;}
	.st4{fill:#174B93;}
	.st5{fill:#174B92;}
	.st6{fill:#184B92;}
	.st7{fill:#184C93;}
	.st8{fill:#198DFD;}
	.st9{fill:#164B94;}
	.st10{fill:#148AFC;}
	.st11{fill:#228FF9;}
	.st12{fill:#188BFA;}
	.st13{fill:#0C83F9;}
	.st14{fill:#0C82FA;}
	.st15{fill:#1282F8;}
	.st16{fill:#1D8DFC;}
	.st17{fill:#0F3E8C;}
	.st18{fill:#0C83FB;}
	.st19{fill:#238FFA;}
	.st20{fill:#113D86;}
	.st21{fill:#1D8FFD;}
	.st22{fill:#1486FA;}
	.st23{fill:#1389FC;}
	.st24{fill:#0F438F;}
	.st25{fill:#0F86FD;}
	.st26{fill:#0E86FC;}
	.st27{fill:#0E3C88;}
	.st28{fill:#0D3885;}
	.st29{fill:#0F3885;}
	.st30{fill:#228FFA;}
	.st31{fill:#2490F9;}
	.st32{fill:#0C418F;}
	.st33{fill:#16418A;}
	.st34{fill:#1B4C91;}
	.st35{fill:#1C4C91;}
	.st36{fill:#154289;}
	.st37{fill:#0D3988;}
	.st38{fill:#0F438E;}
	.st39{fill:#208DFA;}
	.st40{fill:#113F8A;}
	.st41{fill:#1D8CFA;}
	.st42{fill:#1E8FFC;}
	.st43{fill:#133D85;}
	.st44{fill:#164088;}
	.st45{fill:#15418A;}
	.st46{fill:#198BFC;}
	.st47{fill:#1C8CFA;}
	.st48{fill:#278EF6;}
	.st49{fill:#0A3782;}
	.st50{fill:#1386FC;}
	.st51{fill:#208CF8;}
	.st52{fill:#1188FC;}
	.st53{fill:#19458C;}
	.st54{fill:#16438A;}
	.st55{fill:#1C8DF9;}
	.st56{fill:#0F85FD;}
	.st57{fill:#0D85FD;}
	.st58{fill:#1A468B;}
	.st59{fill:#0E85FD;}
	.st60{fill:#1D8AF7;}
	.st61{fill:#258FF9;}
	.st62{fill:#1688FB;}
	.st63{fill:#1081F8;}
	.st64{fill:#248FF9;}
	.st65{fill:#1083F5;}
	.st66{fill:#0A3986;}
	.st67{fill:#123E89;}
	.st68{fill:#218DF8;}
	.st69{fill:#208BF6;}
	.st70{fill:#1386F9;}
	.st71{fill:#258DF6;}
	.st72{fill:#1989F8;}
	.st73{fill:#1085FA;}
	.st74{fill:#0F82FA;}
	.st75{fill:#123F89;}
	.st76{fill:#133E87;}
	.st77{fill:#164187;}
	.st78{fill:#1B468D;}
	.st79{fill:#1B468E;}
	.st80{fill:#063886;}
	.st81{fill:#228DF6;}
	.st82{fill:#1E89F7;}
	.st83{fill:#083483;}
	.st84{fill:#113B84;}
	.st85{fill:#2490FA;}
	.st86{fill:#1687FA;}
	.st87{fill:#1482F8;}
	.st88{fill:#1282F6;}
	.st89{fill:#0E3683;}
	.st90{fill:#1A88F8;}
	.st91{fill:#0E3D8A;}
	.st92{fill:#113A85;}
	.st93{fill:#0F7DF7;}
	.st94{fill:#133F88;}
	.st95{fill:#0D3A88;}
	.st96{fill:#093482;}
	.st97{fill:#103983;}
	.st98{fill:#0C3986;}
	.st99{fill:#1185FB;}
	.st100{fill:#1C458E;}
	.st101{fill:#093581;}
	.st102{fill:#103C86;}
	.st103{fill:#0C3882;}
	.st104{fill:#093887;}
	.st105{fill:#093380;}
	.st106{fill:#1387FC;}
	.st107{fill:#0D3784;}
	.st108{fill:#0B3580;}
	.st109{fill:#0C3A87;}
	.st110{fill:#093481;}
	.st111{fill:#1482F7;}
	.st112{fill:#1081F6;}
	.st113{fill:#0B3581;}
	.st114{fill:#1584F8;}
	.st115{fill:#093283;}
	.st116{fill:#1582F6;}
	.st117{fill:#0C3885;}
	.st118{fill:#0B3885;}
	.st119{fill:#0B3A87;}
	.st120{fill:#FEFEFE;}
	.st121{fill:#238DF8;}
	.st122{fill:#1487FD;}
	.st123{fill:#1E8AF8;}
	.st124{fill:#218DF9;}
	.st125{fill:#118AFD;}
	.st126{fill:#1286FB;}
	.st127{fill:#1085FD;}
	.st128{fill:#0C418C;}
	.st129{fill:#FDFEFE;}
	.st130{fill:#063585;}
	.st131{fill:#093787;}
	.st132{fill:#1A458D;}
	.st133{fill:#093786;}
</style>
<g>
	<defs>
		<rect id="SVGID_1_" x="17.3" y="-130.2" width="465.3" height="464.9"/>
	</defs>
	<clipPath id="SVGID_00000014604075409070655100000011439019136289421467_">
		<use xlink:href="#SVGID_1_"  style="overflow:visible;"/>
	</clipPath>
	<g style="clip-path:url(#SVGID_00000014604075409070655100000011439019136289421467_);">
		<g transform="matrix(0.340936, 0, 0, 0.340576, 13.002601, 12.950214)">
			<g>
				<path class="st1" d="M916.8,137c4.1-34.2,24.3-67.2,62-75.6c1.1-0.2,2.2-0.2,3.3-0.3c8.6,0.5,17.1-1.6,25.7-0.4
					c8.3,1.2,16.6,2.3,24.3,5.8c1.5,0.7,3,0.6,4.5,0.2c8.2,2.6,13.7,8.9,19.8,14.3c1.8-4.4,0.9-8.8,0.5-13.2
					c0.8-4.4,3.7-6.2,7.9-6.5c5.3,0.8,10.6,0.8,15.9,0c4.6,0.7,7.4,3,7.9,7.8c-0.8,1.7-0.5,3.5-0.5,5.2c0,55.1,0,110.2,0,165.4
					c0,1.8-0.3,3.6,0.5,5.2c-1.1,21.9-11.5,38.3-30,49.6c-20.9,12.8-43.9,15.9-67.9,14c-17-1.3-33.5-4.4-48.3-13.2
					c-9.2-5.5-16.7-12.6-20.4-22.9c-3-8.1,0.2-14,8.4-16.3c10-2.7,17-0.6,22.3,8.2c6.5,10.9,16.9,15.1,28.3,17.9
					c11.1,3.7,22.5,1.6,33.8,2.1c0.9,0,1.4-0.3,0.5-0.2c-0.1,0-0.2-0.4-0.2-0.6c0.2-0.1,0.4-0.3,0.6-0.3c23.8-4.4,39.1-15.1,40-50.6
					c0.2-6.1,0-12.2-0.6-18.7c-6.6,10.4-14.5,19-26.4,22.9c-8.4,1.1-16.2,4.6-24.9,4.7c-5.4,0.1-11-0.7-16.3,0.7
					c-2,0.2-4.1,0.3-5.9-0.9c0,0.9-0.2-1.2,0.4-0.6c0.2,0.2,0.7-0.2,0.8-0.6c-3.8,1.1-7.4-1.8-11.3-0.7
					c-32.3-8.9-48.8-31.6-54.6-63.2c-2.2-12.2-2.5-24.5-0.3-36.8c1.4,1.9,0.9,4,0.8,4.6C917,142.6,917.9,139.8,916.8,137z"/>
				<path class="st1" d="M215.3,260.3c2-2.9,4.8-4.1,8.2-4.3c4.8,0.5,9.7,0.6,14.5,1.3c2.6,0.7,4,2.7,5.1,4.8
					c6.8,13.1,18.5,18.2,32.3,20.1c1.9,0.3,3.8,0.8,5.8,1.2c-0.1,0.5-0.7,0.5-0.9,0.9c6.3,0,12.6,0,18.9-0.1c0.1,0,2.2,1.3,1.1-0.8
					c3.2-0.7,6.4-1.5,9.6-2.2c15.2-3.5,25.4-12.5,30.6-27.2c2.9-4.1,2.7-8.9,3-13.6c0.7-9.1,1.2-18.3-0.2-27.4
					c-1.6,0.1-2.1,1.4-2.7,2.5c-9.8,16.9-25.6,23.3-44,25.2c-8-0.9-15.9-0.5-23.9,0c-30.9-1-55.7-24.6-58.5-55.9
					c1.3-3.1-0.2-6.1-0.2-9.2c0.1-35.6-0.2-71.1,0.2-106.7c0.6-2.9,2.4-4.5,5.2-5.2c6.6-0.3,13.3-0.2,19.9,0
					c2.9,0.6,4.7,2.3,5.2,5.3c-1,2.3-0.5,4.8-0.5,7.2c0,28.6,0,57.2-0.1,85.8c0,2.1,0.8,4.4-0.7,6.3c1.4,0.1,0.8-0.9,0.8-1.6
					c0-30.6,0-61.2,0-91.8c0-1.3-0.3-2.7,0.8-3.7c1.2,3.2,0.7,6.6,0.7,9.9c0.1,28,0.1,56,0.2,84c0,4.9,0.5,9.7,1.4,14.6
					c4.5,23.1,17.3,32.1,36.6,35.7c5.3,2.2,10.9,0.4,16.3,1c0.2,0,0.6,0.1,0.6,0c0.4-0.5-0.5-0.5-0.5-0.8c2.6-0.6,5.1-1.2,7.7-1.9
					c20.4-5.7,31.1-19.1,34-42.4c0.3-2.2-0.1-4.5,1.2-6.4c1.7,0.2,0.9-1.1,0.9-1.6c0-29.8,0-59.6,0-89.4c0-1.1,0.1-2.2-0.6-3.2
					c0.3-5,3.5-7.1,8-7.8c4.8,0.7,9.7,0.7,14.5,0c5.1,0.3,8,3.1,9.1,7.9c-0.8,2.4-0.4,4.8-0.4,7.3c0,50.7-0.1,101.4,0.1,152.2
					c0,6.4-1.5,12.7-0.8,19.1c-2,18.4-11.1,32.5-26,42.9c-13.7,9.6-29.1,14.9-45.9,15.6c-7.5-0.8-15-0.8-22.5,0
					c-23.2-1.4-45-6.3-60.3-26c-2.3-2.9-4.5-6-4.9-9.9C215,267.8,213.2,263.9,215.3,260.3z"/>
				<path class="st1" d="M1348.6,215.6c2,2.1,3.8,4.3,6,6.1c4,3.3,6,7.3,4.3,12.3c-1.7,5.1-5.8,7.6-11.1,8.3
					c-13.5,1.7-21.5-3.1-28.5-16.9c-1.1-2.2-2-4.4-2.8-6.1c-31.4,31.7-68.4,32.2-107.4,19.2c-19-6.4-29.8-20-29.9-41
					c-0.2-23.9,8.6-38.8,28.9-47.8c9.8-4.4,20.3-6.3,30.8-7.9c18.2-2.7,36.6-4.1,55.1-3.3c6.7,0.7,13.4,1.3,20.1-0.4
					c1.2-7.8,0-15.8,0.4-20.4c-0.2,4.6,0.6,12.5-0.4,20.3c-0.6,0.8-1.2,0.8-1.9,0.1c1.3-9.5,1.5-19.1,0-28.5
					c-2-12.5-11.4-18.7-22.8-21.6c-17.2-4.4-34.3-3.9-51,2.6c-7.9,3.1-14.1,8-18.5,15.5c-4.9,8.3-18.3,11.2-26.3,6
					c-4.5-2.9-5.6-7.2-4.5-12.2c2.2-10.1,8.1-17.7,16.4-23.4c15.8-10.9,33.6-15.6,52.6-16.6c6.6,0.8,13.3,0.8,19.9,0
					c3.3-0.1,6.6-0.5,9.7,1c-1.6,1.2-3.2,1.2-3.9,0.8c1.8-0.2,4.7,0.5,7.5-0.5c20.8,2.9,39.7,9,49.7,29.9c1.9,4,3.4,8.1,3.5,12.6
					c0.2,11.5,0.2,23,0.2,34.5c0,21.3-0.1,42.6,0.1,64C1344.7,206.9,1344.1,212.1,1348.6,215.6z"/>
				<path class="st1" d="M631.6,175.2c2.4,6.6,3.9,13.5,7.1,19.8c7.8,15.2,21,22.6,37.1,25.7c-0.2,0.8-1.1,0.6-1.6,1.1
					c8.3-0.5,16.7,0.4,25-0.5c1.3-0.1,3.2,0.2,3.8-1.7c15.2-3.8,25.7-12.7,31.5-27.6c2.9-7.4,9.9-7.2,16.4-7.1
					c5.5,0.1,11.4-0.2,13.5,6.8c-0.9,2.6-0.8,5.3,0,7.9c-2.5,12.2-10.5,20.9-19.8,28.1c-24.4,19-52.3,21.8-81.7,16.1
					c1.1-1.1,2.2-1.2,2.8-0.6c-4.6,0-9.3-2.3-14.4-2.5c-23.3-7.1-37.8-23.1-46.5-45.2c-2.7-13.4-6.3-26.7-5.6-40.6
					c0.5-10.6,1-21.2,4.1-31.5c0.4-1.3,0.9-2.5,0.1-3.8c7.4-31.4,34.8-54.9,68-58.7c14.3-1.6,28.4-1.6,42.2,2.1
					c30,7.9,51.4,34,55,66.4c0.9,8.2,2.1,16.3,0.1,24.5c-1.3,5.1-3.9,8.9-9.6,9.6c-2.4-0.9-4.8-0.5-7.2-0.5c-39.7,0-79.4,0-119,0
					c-1.9,0-3.9-0.3-3.8,2.8c0.1,3.2,0.6,6.3,1.5,9.4c0.1,0.2,0.3,0.4,0.4,0.4C631.3,175.5,631.5,175.3,631.6,175.2z"/>
				<path class="st1" d="M111.3,137.5c15.9,2.9,31.9,5,47.4,9.4c17.5,5,30.4,14.1,33.5,33.3c3.1,18.7-2.7,34.1-17.5,45.9
					c-13.5,10.9-29,16.7-46.1,18.6c-10.2,0.2-20.4,0.2-30.6,0c-21-2.2-40.4-7.8-54.8-24.4c-4.5-5.2-8.1-11-8.9-18.1
					c0.7-2.6,0.6-5.2,0.1-7.8c0.8-2.7,2.4-4.5,5.1-5.2c5.7-1.5,11.5-0.2,17.2-1.3c2.8-0.1,4.9,1.4,5.9,3.5
					c8.4,18.2,23.6,25.9,42.5,28.1c-0.6,0.8-1.4,0.9-2.3,0.8c3.5,0.3,7.1,0.2,10.6,0.4c3.9,0.1,7.9-0.3,11.8-0.3
					c0.9,0-0.2,0.3,0.6,0.1c0.4-0.1,0.2-0.7-0.2-1c7.4-2.1,15.1-3.5,21.6-8.1c4.9-3.5,8.4-7.9,10.1-13.6
					c3.5-11.1-0.1-18.9-10.9-23.8c-10.9-4.9-22.8-5.5-34.3-7.6c-13.9-2.6-27.8-5.5-41.2-10.1c-19.8-6.8-33-19.1-34-41.1
					c-1-22,9.8-37.8,28.7-47.9c20.7-11,43-11.3,65.5-8.5c14.2,1.8,27.9,5.1,39.8,13.6c7.7,5.5,13.2,12.4,15,21.9
					c-1,2.6-0.6,5.2-0.2,7.8c-1.4,3.5-4.1,5-7.7,5.2c-5.3-0.7-10.6,0.3-15.8-0.1c-2.6-0.4-4.5-1.9-5.7-4.1
					c-5.9-10.7-15.9-15-27.1-17.2c-14.8-3-29.6-3.6-43.7,3.1c-15.8,7.5-19.5,23.6-8.7,36.8c4.5,5.7,11.3,6.7,17.8,8.3
					c1.8,0,3.6,0,5.1,1.2C103.6,136.6,107.3,138.2,111.3,137.5z"/>
				<path class="st1" d="M407.5,239.4c-1.3-0.4-2.1-1.2-2.5-2.5c1.2-12.2-0.2-24.5,0.7-36.8c-1,11.9,0.8,23.9-1.1,35.8
					c-1.9-2.1-1.2-4.6-1.2-7c0-51.2,0-102.4,0-153.7c0-2.6-0.6-5.4,1.3-7.7c1.5,9.6,0.4,19.3,0.7,29c0.2,7,0,14,0.1,21
					c-0.5-17,0.5-34.1-0.4-51.1c0.9-2.3,2.6-3.6,5-4c6.6-0.3,13.2-0.1,19.9,0.1c2.8,0.6,4.6,2.3,5.2,5.1c-1.3,6,0.1,12.1-0.7,18.2
					c0.8-5.6-0.7-11.4,0.9-17c2.4,5.8,0.2,11.9,1.4,17.8c0.3,0,0.9,0.1,1-0.1c15.1-24.4,38.8-29.2,64.9-27.7
					c17.1,1,33.3,5.4,46.8,16.8c18.1,15.4,26.3,35.1,25.6,58.8c-1.1,6.1-0.4,12.3-0.5,18.5c-0.1,24.1-0.2,48.2,0.1,72.2
					c0,5.6-0.7,10.5-4.7,14.6c-0.7,1-1.6,1.3-2.8,1.2c-5.2-1.4-10.5,1.2-15.7-0.7c-7.2-2.4-9.3-5-8.8-14.1
					c0.5-10.1,0.6-20.3,0.4-30.4c-0.5-21.4,1-42.8-0.6-64.1c-0.4-5.4-0.1-11-3.4-15.7c-6.1-19.1-20.1-28.5-39-32
					c-2.4-0.6-17.5-1.4-19.5-1c0.6,0.3,1.3,0.2,1.6,1c-31.2,9.1-46,29.5-45.9,62.6c0.1,27,0.1,54,0,81.1c0,2.4,0.6,4.9-1.1,7
					c-0.6-0.7-0.8-1.5-0.8-2.5c0-30.4,0-60.8,0-91.2c0-0.7,0.1-1.3,0.7-1.8c-0.1,0-0.3,0-0.7-0.1c0,30.2,0,60.5,0,90.7
					c0,7.6-2,9.6-9.4,10.8C419.2,241.6,413.4,240.2,407.5,239.4z"/>
				<path class="st1" d="M799.4,240.8c-4.2-0.9-6.7-3.4-6.6-7.9c0.9-1.7,0.6-3.5,0.6-5.2c0-51.1,0-102.3,0-153.4
					c0-1.8,0.3-3.6-0.5-5.2c0.7-5.3,4.3-7.4,9.2-7.8c6.4,1.3,13.1-0.8,19.3,2.3c2.2,1.2,3.4,3,3.2,5.6c-0.5,5.3-1.6,10.7,0.5,15.9
					c6.2-7.3,10.9-16.1,20.3-20.1c17-8.4,34.1-6,51.4-1c4.2,1.9,7.9,4.4,9.3,9.3c0.3,4.5-0.1,8.9-1.5,13.2
					c-6.2,6.6-13.7,6.8-22.5,0.3c-10.2-4.6-20.4-5.4-30.5,0.3c-20.5,11.2-25,30.6-25.5,51.4c-0.6,29.5-0.2,59-0.2,88.5
					c0,2.6,0.7,5.3-1,7.8c-1-1.1-0.8-2.5-0.8-3.8c0-30.4,0-60.8,0-91.2c0-1-1-2.5,0.3-2.9c-1.4,0.7-0.3,2.4-0.3,3.7
					c-0.1,29.7-0.1,59.4,0,89.2c0,4.7-0.9,8.3-5.2,10.5C812.4,241.7,805.9,240.5,799.4,240.8z"/>
				<path class="st1" d="M1152.4,234.2c-0.7,3.6-2.9,5.8-6.5,6.5c-6.6-0.2-13.2,0.4-19.8,0c-2.8-0.6-4.8-2.1-5.4-5
					c-0.1-56,0-112,0-168c0.3-2.5,1.8-4.1,4.1-5c6.1-1.1,12.4-0.7,18.5-1.4c4.8,0.6,8.5,2.5,9.2,7.8c-0.7,1.5-0.5,3-0.5,4.6
					c0,52,0,104,0,155.9C1152,231.1,1151.7,232.7,1152.4,234.2z"/>
				<path class="st2" d="M386.3,370.4c-8,1.9-11.4,7.8-13.2,15.1c-2.1,8.4-0.2,16.9-1,25.3c-0.3,3.2,2.5,8.5-3.9,8.6
					c-6.5,0.1-3.4-5.3-3.9-8.5c-0.5-3.2,0.5-6.6-0.5-9.9c-0.1-3.7-0.4-7.4-0.2-11.1c0.3-9.3-3.4-15.9-12.2-19.4
					c-2.7-1.9-5.6-0.4-8.5-0.8c-0.1,0-0.3,0.2-0.3,0.3c0,0.2,0.1,0.4,0.2,0.6c-8.5,3.5-11.8,9.9-11.4,18.9
					c0.4,8.9-0.1,17.8,0.2,26.6c0.1,4.2-1.9,4.5-5.2,4.6c-3.7,0.1-5.1-0.9-5-4.8c0.2-15.1,0-30.2,0.2-45.3c0-2.6-2.5-7,3.7-7.2
					c4.7-0.2,8.2,0.2,5.8,7.1c16.2-12.5,31.6-10.5,40.5,5c3.8-8.5,10.3-12.5,19-13c3,1,6.1,1.6,9.3,1.2c9.8,2.9,15.5,10.4,15.9,22.3
					c0.4,10.8,0,21.5-0.1,32.3c-7.2,2.3-8.4,1.6-8.4-5.4c0-8.7,0-17.3,0-24.1c-0.7,9,0.9,20.1-0.7,31c-1.8-10-0.6-20.1-0.7-30.2
					c-0.1-9.4-3.4-16.2-12.9-19.1C390,369.3,389.1,369.3,386.3,370.4z"/>
				<path class="st3" d="M526.3,418.3c-0.1-9.9-0.3-19.8-0.2-29.6c0.1-6.3-1.8-11.6-6.7-15.7c-3.5-3.8-8.1-3.4-12.7-3.3
					c-0.1,0-0.4,0.2-0.4,0.3c0,0.2,0.1,0.4,0.1,0.6c-4.5,1.6-8.4,3.9-10.9,8.2c-2.5,2.4-2.3,5.5-2.3,8.6c0,9.1,0,18.1,0,27.2
					c0,2.7-0.3,4.8-3.7,5c-3.7,0.1-4.3-2-4.3-5.1c0.1-8.6,0-17.3,0-25.9c0-3.1,0.2-6.2-2.1-8.7c-4.1-6.4-9.5-10.3-17.6-9.2
					c-8.6,1.2-12.2,7.1-14.1,14.7c-1.9,9.5-0.4,19.1-0.8,28.6c-0.3,6-1.7,6.8-7.8,4c-0.3-16.1-0.1-32.2-0.1-48.3c0-2.2-1-5,3-5.4
					c3.7-0.3,5.2,1.2,5.4,4.7c0.4,2.6,1.1,1.9,2.7,0.5c12.7-11.8,29.3-9.5,38.2,5.7c5.8-10.8,14.8-14.7,26.4-12.3
					c9.8,2.1,15.2,8.4,16.7,18.2c-1,11-0.3,22-0.4,33c0,4.3-1.1,6.5-5.8,4.7c-1.9-7.8-0.4-15.7-0.9-23.5c-0.1-2.4,0-4.9,0-7.3
					c-0.1,9.7,0,19.5-0.1,29.2C527.8,418.1,527.3,418.5,526.3,418.3z"/>
				<path class="st1" d="M1115.5,11.7c3.6-12.6,13.8-19.3,26.5-17.3c10.8,1.6,18.6,10.9,18.7,22.3c0.1,12.5-7.4,21-20.1,22.8
					c-2.2-0.9-4.4-0.8-6.6-0.1c-8.3-1-13.9-5.7-17.2-13.2C1115.6,21.5,1116.3,16.5,1115.5,11.7z"/>
				<path class="st4" d="M850,419.4c-12.1-4.7-16.9-14.2-17.4-26.4c-0.4-12.1,3.4-22.6,14.9-28c12.1-5.7,23.2-3.2,32.2,7.1
					c2.3-2.7-1.1-6.4,2.2-8.4c6.4-0.3,7.7,2.8,7.5,8.8c-0.5,13.5-0.1,26.9-0.2,40.4c0,7-1.2,7.7-8.5,5.3c-0.1-2-0.3-3.9-0.5-6.5
					c-4.5,3.9-8.3,8.5-14.4,9C860.7,420.1,855.3,420.1,850,419.4z"/>
				<path class="st5" d="M256.8,419.5c-14.9-5.2-22-21.6-16.8-38.1c4.9-15.3,21.2-22.4,34.3-17.9c-0.2,0.7-1.3,0.2-1.3,1.1
					c1.1-0.8,2.6,0,3.7-0.7c11.7,3.4,17.3,11.9,18.6,23.3c1.5,13-2.4,24.1-14.6,30.8C272.8,419.8,264.9,421.2,256.8,419.5z"/>
				<path class="st4" d="M1061.8,398.2c-1.9,10.2-7.2,17.6-17.2,21.1c-5.7,0.8-11.5,0.8-17.2,1.3c-11.8-2.6-19-10.2-21.2-22.4
					c0.8-4,0.8-7.9,0-11.9c2.8-17.6,18-27.6,34.9-22.9c-0.3,0.6-0.8,0.8-1.3,0.8c1.2,0.2,2.4,0.3,3.6-0.4
					c10.8,3,16.8,10.2,18.6,21.2C1061.7,389.4,1061,393.8,1061.8,398.2z"/>
				<path class="st6" d="M571.5,399.4c2.7,6.9,6.4,12.7,14.7,13.5c9.8,0.9,17.1-5.4,17.3-15.6c0.3-9.7,0.3-19.5,0-29.2
					c-0.1-4,1.5-4.6,5-4.7c4.1-0.1,5.3,1.1,5.2,5.2c-0.2,15.5-0.2,31,0,46.5c0,3.6-0.3,5.8-4.8,5.7c-3.9-0.1-5.9-0.9-5.3-5.1
					c0.1-0.6-0.2-1.2-0.4-2.1c-4.2,3-7.5,7.3-13.1,7.2c-2.6-0.7-5.3-0.8-7.9,0.1c-12-1.1-18.8-8.8-19.9-22.5
					c1.2-9.6,0.3-19.3,0.5-29c0.1-2.9,0.1-5.1,4.1-5.1c4.1,0,3.8,2.4,4,5.2C571.2,379.4,569.7,389.4,571.5,399.4z"/>
				<path class="st5" d="M204.7,381.1c-2.7-5.8-7.4-9.1-13.4-10.8c-2.4-1.1-2.5-1.1-4.9,0c-13.5,5.3-18.7,17.3-13.6,31
					c2.4,6.3,6.8,10.3,13.5,11.3c6.9,1,13.2-0.9,16.6-7.1c3.2-5.7,7.8-2.2,11.7-3.5c-1.5,10.6-9.1,17.4-20.6,18.6
					c-3.1-0.8-6.2-0.9-9.2,0.1c-13.9-1.5-23.2-12-24-27c-0.8-15.5,7.6-27.6,21.5-30.8c13.7-3.2,26.4,3,31.4,15.4
					C212.3,384.3,207.9,380.7,204.7,381.1z"/>
				<path class="st7" d="M659.9,371.9c-3.9,2.6-6.5,6.3-8.4,10.6c-2.3,1.6-1.3,4-1.4,6c-0.1,7.9,0,15.7-0.1,23.6
					c0,2.3,0.6,4.9-1.4,6.8c-3.9,1.4-5.9,0.3-5.9-4.1c0-15.4,0.1-30.9,0-46.3c0-4.4,2.7-5.4,5.4-3.6c2.8,1.8,1.1-1.4,2-1.1
					c2.9,1.3,0.3,4,1.9,6.1c3.8-2.5,7.3-5.5,12-6.8c13.8-3.7,26.4,3.6,29,17.6c2.3,12.1,0.5,24.3,1,36.5c0.2,4.5-3,3.3-5.5,3.5
					c-2.7,0.2-4.7-0.1-4.7-3.7c0.2-9.1-0.1-18.2,0.1-27.2c0.2-9.4-3.3-16.3-12.7-19.3C664.8,369,664.5,369.1,659.9,371.9z"/>
				<path class="st5" d="M778.1,420.7c-8.5-1.1-14.4-5.8-18.4-13.2c-2.5-7.8-3.2-15.8-2.8-23.9c3.2-12.8,12.3-20.7,24.7-21.4
					c13-0.7,22.7,5.1,27,16c-2.1,6.4-6,2.7-9.5,1.8c-2.8-5.5-7.8-8-13.4-9.6c-0.9-0.8-2.6-1.1-4.5-0.8c-0.9,0.1-1.4,0.5-0.5,0.3
					c0.1,0,0.2,0.3,0.3,0.5c-6.1,1.6-10.5,5.3-13.5,10.7c-2.1,2.3-2.6,4.8-1.6,7.7c0,1.8,0,3.6,0,5.4c-0.7,1.1-0.4,2.4-0.5,3.6
					c0,0.5-0.1,1,0.2,1.5c-0.1-0.7,0.1-1.2,0.7-1.5c5.2,13,13.8,17.8,24.3,13.7c2.3-0.9,4.8-2,5.8-4.2c2.9-6.3,8-5.7,13.8-4.7
					c-2.7,7.7-6.8,13.8-14.8,16.6C789.6,420.2,783.8,420,778.1,420.7z"/>
				<path class="st5" d="M1182,420.7c-8.1-0.9-13.7-5-15.8-13.2c3-4.6,6.1-2.6,9.3-0.2c2.2,3.7,5.9,5.2,9.7,6.6
					c-0.2-0.9,0.4,1.1-0.3,0.5c-0.7-0.6-1.3,0-0.5,0.3c1.4,0.4,2.9,0.3,4.2,0.1c1.1-0.1-0.7-0.4-0.3-0.9c5.1-1,9.4-3,11-8.5
					c-0.2-5.1-2.9-7.9-7.8-9c-4-0.9-7.7-2.9-12-2.5c-3-0.7-5.9-1.4-8.2-3.6c-1.1-1.9-2-3.9-4.1-5c-1.1-0.8-1.2-1.9-1-3.1
					c0.9-2.2,0.9-4.4,0-6.6c1.1-7.9,7.1-10.7,13.6-12.5c11.3-3.1,22.4,1.1,26.2,9.8c0.8,1.9,3.3,5.2,0.4,6.2
					c-2.6,0.9-7.2,2.7-9.1-2.1c-2.8-6.7-8.3-7.4-14.3-6.6c-4.1,0.5-6.9,2.9-7.3,7.3c-0.4,4.1,1.8,6.7,5.5,8.1c2.7,1,5.4,1.9,8,2.9
					c-0.2,0.4-0.6,0.6-1,0.7c0.1,0.1-0.7,0.2,0,0.1c2.5-0.2,4.7,2.1,7.3,0.9c5.2,1.4,10.4,2.9,11.9,9.1c0.1,3.5,0.1,7.1,0,10.6
					c-2.4,7-7.7,9.8-14.6,10.5C1189.1,419.9,1185.5,420,1182,420.7z"/>
				<path class="st4" d="M1097.8,366.2c0.2,1.5,0.3,2.9,0.6,5c4.8-5.4,10.2-8.6,17-9c14.5-0.9,24.4,7.8,25.1,22.9
					c0.5,11,0,22.1,0,33.2c-7.1,2.4-8.2,1.7-8.4-5.2c-0.4-9.2,1.2-18.5-0.9-27.7c-1.8-6.8-5.1-12.4-12.2-14.8
					c-6.7-1.9-9.5-1.4-14.1,2.4c-3.2,3-5,6.9-6.6,10.9c-1.8,8.7-0.3,17.5-0.8,26.2c-0.1,1.8-0.1,3.5,0,5.3c0.1,2.8-1.3,4.1-4,4
					c-2.7,0-3.9-1.4-3.9-4.2c0-9.3,0-18.6,0-27.9c0-5.8-0.1-11.5,0-17.3c0-1.8-1.1-4.5,1.3-5.3
					C1093.1,363.9,1096,363.2,1097.8,366.2z"/>
				<path class="st2" d="M945.8,414.3c1.1,4.8-0.4,6.5-5.6,6.5c-14.2-0.2-18.3-4-18.3-18c0-8.7-0.1-17.3,0.1-26
					c0.1-3.6-0.2-6.2-4.8-5.4c-2.6,0.4-3.8-0.9-3.4-3.4c0.2-1.5-1-4.5,1.6-4.2c8.3,1,6.6-4.7,6.5-9.2c-0.1-3.4,0.4-5.2,4.6-5.2
					c4.1,0,5.7,1.1,5.2,5.2c-0.3,2.8-0.2,5.8-0.2,8.6c4.4,3.1,9.7-0.3,14.3,1.9c0.5,4.7-1,7.1-6.2,6.5c-2.6-0.3-5.3,0.1-7.9,0.2
					c-1.6,11.9-1.3,23.9-0.1,35.8c1.4,2.9,3.9,4.5,6.9,5.3C940.5,415,943.6,412.5,945.8,414.3z"/>
				<path class="st8" d="M1120.6,67.7c2.2,2,1.3,4.6,1.3,6.9c0,51.4,0,102.8,0,154.2c0,2.3,0.9,4.9-1.3,6.9c-1.7-2.1-1.3-4.6-1.3-7
					c0-51.1,0-102.1,0-153.2C1119.4,72.8,1119,70.1,1120.6,67.7z"/>
				<path class="st9" d="M979.3,419.6c-8.7,2.4-9.3,2.1-9.3-6.1c0-14.6-0.1-29.3,0-43.9c0-1.9-1.4-4.4,1.2-5.9
					c1.5,11.2,0.3,22.5,0.6,33.7c0.2,5.9,0,11.9,0.1,17.8c0-15.8,0.1-31.6,0-47.4c0-4.3,2.9-3.6,5.5-3.5c1.8,1.3,1.2,3.2,1.2,4.9
					c0.1,14.8-0.1,29.6,0.2,44.4C978.8,415.5,976.1,418,979.3,419.6z"/>
				<path class="st10" d="M214.3,69c1.7,1.6,1.1,3.7,1.1,5.7c0,34.8,0,69.7,0,104.5c0,1.9,0.6,4-1.1,5.7c-1.1-5-1.4-10.1-1.4-15.2
					c0.1-30.8,0.1-61.5,0.1-92.3C213.1,74.6,212.7,71.7,214.3,69z"/>
				<path class="st11" d="M539.3,115.9c0.4-0.4,0.3-3.1,1.4-0.7c1.3,2.7,2.5,5.9,2.4,8.9c-0.3,11.9,1.8,23.6,1.2,35.7
					c-0.5,8.9-0.8,18.2,0.1,27.5c1.2,11.7,0.4,23.6-0.9,35.4c-0.8,7.2,1.9,13.7,7.9,17c-0.3,0.5-0.7,0.9-1.3,1.1
					c-7-1.4-8.2-6.5-8.1-12.5c0.1-27.8-0.1-55.5,0.1-83.3C542.2,135.1,541.3,125.5,539.3,115.9z"/>
				<path class="st12" d="M374,248.9c-2.1-2-1.5-4.7-1.1-6.9c2.5-15,1.1-30,1.1-45c0.2-39.6,0.1-79.3,0.1-118.9c0-2.6-0.9-5.3,1-7.7
					c0.1,5.3,0.3,10.6,0.3,15.9c0,49.2,0,98.3,0,147.5C375.5,238.9,375.5,244,374,248.9z"/>
				<path class="st13" d="M1088.5,244.9c-1.9-2.1-1.1-4.7-1.1-7c0-53.9-0.1-107.9,0-161.8c0-2.3-0.8-4.9,1.1-7
					c0.2,2.2,0.5,4.4,0.5,6.6c0,53.3,0,106.6,0,159.9C1089,238.7,1088.6,241.8,1088.5,244.9z"/>
				<path class="st14" d="M1152.4,234.2c-1.7-1.9-1-4.2-1-6.4c0-50.8,0-101.6,0-152.4c0-2.1-0.7-4.5,1.1-6.3
					c0.2,2.4,0.6,4.8,0.6,7.3c0,50.4,0,100.8,0,151.3C1153,229.8,1152.6,232,1152.4,234.2z"/>
				<path class="st15" d="M792.9,69c2,2.1,1.1,4.6,1.1,7c0,50,0,100,0,149.9c0,2.3,0.9,4.9-1.2,7c-0.1-31.8-0.2-63.5-0.2-95.3
					C792.5,114.8,792.7,91.9,792.9,69z"/>
				<path class="st16" d="M407.5,239.4c5.2,0.1,10.3,0.2,15.5,0.2c8.7,0,11.1-2.4,11.1-10.9c0-28.4,0-56.8,0-85.1
					c0-2.2-0.6-4.4,1.4-8.1c0,34.1,0,66.6,0,99.2c-0.2,3.4-2.6,5.4-5.3,6C422.7,242.2,414.9,243.4,407.5,239.4z"/>
				<path class="st17" d="M721,364.9c7.8-3.5,10-2.5,10,5c0,15.2,0,30.4,0,45.7c0,1.8,0.9,4.9-1.9,4.7c-2.7-0.2-6.6,3-8.2-2
					c0.8-0.8,1.7-1.4,2.7-1.8c3.1-0.9,2.9-3.7,3-6c0.2-12.6,0.2-25.2,0-37.9c0-2.3,0.2-5.1-3-5.9C722.6,366.4,721.7,365.7,721,364.9
					z"/>
				<path class="st18" d="M630.1,162.3c40.7,0,81.5,0,122.2,0c2.3,0,4.9-0.8,7,1.1c-21.5,1.4-43,0.4-64.5,0.6
					c-21.5,0.2-43,0.1-64.5,0.1C629.5,163.6,629.5,163,630.1,162.3z"/>
				<path class="st19" d="M603.5,119.7c2.8,6.3-1.3,11.9-1.9,17.9c-1.5,16.9-1.8,33.4,2.7,49.9c0.7,2.4,3.1,5.2,0.6,8.1
					c-6.3-15.7-7.6-32.1-6.3-48.7C599.4,137.7,599.6,128.3,603.5,119.7z"/>
				<path class="st20" d="M1097.8,366.2c-7.2-2.3-7.8-2-7.8,5.2c0,13.8,0,27.5,0,41.3c0,2.2-0.9,5.3,3,5.5c4.3,0.2,3.6-3,3.6-5.5
					c0-9.8,0-19.5,0-29.3c0-0.3,0.3-0.6,0.5-0.9c0.3,0.5,0.6,1,0.9,1.5c0,10.6-0.2,21.3,0.1,31.9c0.1,3.8-1,4.9-4.8,4.9
					c-3.7,0-4.9-1-4.9-4.8c0.2-16.2,0.1-32.4,0.1-48.6c0-1.6-0.7-4.3,2.2-3.7C1093.1,364.2,1097.2,360.7,1097.8,366.2z"/>
				<path class="st21" d="M1348.6,215.6c-3.8-2-5.3-5.7-5.4-13.6c0-26.4-0.1-52.8,0.1-79.2c0-6.3-1.3-12.8,1.1-19
					c0.1,1.2,0.2,2.4,0.3,3.6c1,2.4,0.5,4.8,0.5,7.2c0,28.2,0,56.3,0,84.5c0,2.4-0.4,4.9,0.4,7.3
					C1346.7,209.4,1347.7,212.5,1348.6,215.6z"/>
				<path class="st22" d="M570.1,239.7c5.9-9.3,3.8-19.7,3.9-29.7c0.2-22.9,0-45.7,0.1-68.6c0-2.3-0.8-4.9,1.1-7
					c0.1,32.1,0.2,64.2,0.2,96.2C575.5,234.7,574.2,238,570.1,239.7z"/>
				<path class="st23" d="M818,239.6c4.2-2.2,5.5-5.7,5.4-10.4c-0.2-29-0.1-58.1-0.1-87.1c0-2.1-0.6-4.4,1.4-8
					c0,34.5,0,67.5,0,100.4c-0.7,3.7-3.1,5.8-6.8,6.3c-0.4-0.3-0.6-0.5-0.4-0.8C817.7,239.8,817.9,239.6,818,239.6z"/>
				<path class="st24" d="M721,364.9c0.8,0,1.6,0,2.4,0c1.9,2.1,2.1,4.8,2.1,7.5c0.1,12.8,0.1,25.6,0,38.4c0,2.7-0.2,5.3-2.1,7.5
					c-0.8,0-1.6,0-2.4,0C721,400.5,721,382.7,721,364.9z"/>
				<path class="st20" d="M483.3,379.8c3.8,0.6,2.7,3.6,2.7,5.8c0.1,9,0,18.1,0.1,27.1c0,2.2-0.9,5.2,3,5.4c4.3,0.2,3.6-2.9,3.6-5.5
					c0-8.8,0.1-17.6,0-26.5c0-2.9,0.4-5.6,1.9-8c0-0.1,0.4,0,0.6,0.1c0.2,0.1,0.3,0.3,0.5,0.5c-2.8,10.7-0.7,21.5-1.6,32.3
					c-0.3,3.6,3.6,10.1-5.2,9.6c-8.4-0.5-3.7-6.6-4.1-9.9C483.8,400.5,485.7,390,483.3,379.8z"/>
				<path class="st25" d="M245,71.3c-0.1,30.6-0.2,61.2-0.3,91.8c0,2.4,0,4.8,0,8c-1.8-2.4-1.2-4.2-1.2-5.9c0-29.9,0-59.9,0-89.8
					c0-2.1-0.7-4.5,1.2-6.3C244.8,69.8,244.9,70.5,245,71.3z"/>
				<path class="st26" d="M343.5,70.4c1.6,1.3,1.2,3.2,1.2,4.9c0,30.6,0,61.2,0,91.8c0,0.6-0.2,1.2-0.3,1.9c-1.6-1.2-0.6-3-1.2-4.4
					C343.3,133.2,343.4,101.8,343.5,70.4z"/>
				<path class="st1" d="M1345.7,206.3c-1.3-1.2-1.1-2.8-1.1-4.4c0-31.5,0.1-63.1,0.1-94.6c1.1,1.8,1,3.8,1,5.8
					C1345.7,144.2,1345.7,175.2,1345.7,206.3z"/>
				<path class="st27" d="M650.1,363.7c0,2.2,0,4.3,0,7.2c-2.2-2.1-0.3-6.2-4.2-5.7c-3.8,0.5-2.4,3.7-2.4,5.9c-0.1,14,0.1,28-0.1,42
					c-0.1,4.1,1.4,5.8,5.4,5.2c0.8-0.8,1.6-0.8,2.4,0c-1.3,4.6-5,2-7.5,2.1c-2.6,0.2-1.8-2.5-1.8-4.1c0-16.1,0.1-32.3,0-48.4
					C641.6,360.3,647,364.5,650.1,363.7z"/>
				<path class="st28" d="M571.5,399.4c-0.1,0.2-0.1,0.5-0.2,0.6c-0.2,0.3-0.5,0.5-0.8,0.7c-0.1-3.2-0.4-6.5-0.4-9.7
					c-0.1-7.1,0-14.2,0-21.3c0-2.2,0.3-4.6-3.1-4.8c-3.8-0.2-3.6,2.4-3.6,4.9c0,8,0,16,0,24c0,1.5,0.2,3.1-1.2,4.3
					c-0.1-10.4-0.1-20.7-0.4-31.1c-0.2-4.5,2.7-3.4,5.2-3.7c3.2-0.3,4.7,0.4,4.6,4.2C571.3,378.2,571.5,388.8,571.5,399.4z"/>
				<path class="st29" d="M880.8,418.3c6.5,1.1,8.2-1.7,8-8c-0.5-12.1-0.4-24.3,0-36.5c0.2-5.5-0.6-9.3-6.8-10
					c6.2-1.3,8.8,0.2,8.5,7.5c-0.7,14.8-0.2,29.6-0.3,44.4c0,1.7,1.2,4.7-1.8,4.7C885.9,420.3,882.3,422.8,880.8,418.3z"/>
				<path class="st30" d="M1036.6,66.7c-1.7,1.1-3.3,1.8-5.4,0.8c-12.4-5.5-25.4-7.3-38.9-5.4c-3.3,0.5-7,1.4-10.2-0.9
					c16.9-3.7,33.4-1.5,49.7,3.8C1033.3,65.5,1034.9,66.1,1036.6,66.7z"/>
				<path class="st31" d="M896.7,63.8c-6.8,1.1-12.8-2.7-19.5-3.1c-9.6-0.7-18.5-0.3-27.3,3.7c-1.3,0.6-3,0.4-4.5,0.5
					c12.2-8.2,25.7-7.6,39.1-5C888.6,60.6,893,61.2,896.7,63.8z"/>
				<path class="st32" d="M651.1,418.3c-0.8,0-1.6,0-2.4,0c0-9.8,0-19.5,0-29.3c0-2.9,0.3-5.6,1.9-8c0,0,0.4,0.1,0.5,0.2
					c0.2,0.4,0.3,0.8,0.4,1.3C651.3,394.4,651.2,406.3,651.1,418.3z"/>
				<path class="st33" d="M363.6,401c1.9,2.1,0.5,4.7,1.2,6.9c1.1,3.4-3.3,10.1,3.4,9.9c6.3-0.2,2.7-6.7,3-10.2
					c0.6-7.4-0.2-15,0.4-22.5c0.2-3.4,1-0.2,1.4,0.3c0,10.2-0.2,20.4,0.1,30.6c0.1,4.2-1.7,4.6-5.1,4.6c-3.3,0-4.9-0.7-4.6-4.4
					C363.7,411.2,363.6,406.1,363.6,401z"/>
				<path class="st34" d="M970.1,346.3c4.6-4.5,7.1-4.2,10.4,1.3c-0.6,2.3-1.1,4.6-2.4,6.7c-3.2,2.3-5.8,1.8-7.9-1.5
					C970.1,350.7,970.5,348.5,970.1,346.3z"/>
				<path class="st35" d="M730.2,353.7c-2.1,2.4-4.4,2.9-7,0.7c-1.1-2.6-2.1-5.2-2.1-8c3.4-4.3,6.7-4.6,10.1,0
					C731.1,348.8,730.9,351.3,730.2,353.7z"/>
				<path class="st36" d="M451.2,368.9c-1.4-1.7-1.8-4.7-5.2-3.9c-3.7,0.9-2.5,3.8-2.5,5.9c-0.1,15.8,0,31.5,0,47.3
					c-0.4,0.4-0.8,0.4-1.2,0c-0.1-16.6,0.1-33.2-0.3-49.7c-0.1-4.9,2-5.1,5.8-5.2C452.7,363.2,451.6,366.1,451.2,368.9z"/>
				<path class="st37" d="M979.3,419.6c-2.2,0-4.3,0-6.5,0c5.1-0.8,5.3-4,5.3-8.1c-0.2-15.5-0.1-31.1-0.1-46.6
					c-0.5-0.3-0.6-0.6-0.4-0.8c0.2-0.3,0.3-0.4,0.5-0.4c1.5,0,1.8,0.9,1.8,2.1C979.6,383.8,980.5,401.7,979.3,419.6z"/>
				<path class="st38" d="M978,363.7c0,0.4,0,0.8,0,1.2c-4.7-0.7-5.4,1.9-5.4,5.9c0.2,14.8,0.1,29.6-1.3,44.4c0-17.2,0-34.3,0-51.5
					C973.5,363.7,975.8,363.7,978,363.7z"/>
				<path class="st39" d="M987.4,242.2c5.7-2.9,11.9-0.9,17.9-2c6.8-1.2,13.8-1.7,20.4-4.2c1.1-0.4,2.1-0.1,2.9,0.8
					C1015.4,242.8,1001.5,243.5,987.4,242.2z"/>
				<path class="st40" d="M526.3,418.3c0.4,0,0.7,0,1.1,0c0.4-0.7,0.9-0.7,1.3,0c3.9,0.5,5.5-1,5.4-5.2c-0.3-8.6-0.1-17.2,0-25.8
					c0-2.1-0.7-4.4,1.1-6.3c1.7,12.1,0.4,24.2,0.8,36.3c0,1.5,0,3.6-2.1,3.2C531.3,420,527.6,423,526.3,418.3z"/>
				<path class="st41" d="M343.4,213c0.4,0,1.1,0,1.1,0.1c0,13.5,1.9,27.2-2,40.5c-0.4,1.3-0.7,3.9-1.9,0.3
					C343.7,240.4,343.3,226.7,343.4,213z"/>
				<path class="st42" d="M405.1,66.4c2,4.5,0.9,9.2,0.9,13.7c0.2,13.1,0.1,26.1-1.3,39.2c0-17.3,0-34.5,0-51.8
					C404.6,67.1,404.8,66.7,405.1,66.4z"/>
				<path class="st43" d="M442.3,418.3c0.4,0,0.8,0,1.2,0c5.1,0.8,7-1.1,6.8-6.5c-0.4-9-0.1-18.1-0.1-27.1c0-0.3,0.4-0.6,0.6-0.9
					c0.3,0.5,0.6,1,0.9,1.5c0.1,10.4,0.2,20.8,0.2,31.2c0,1.6,0.6,4.2-2,4C447.2,420.2,443.5,423.1,442.3,418.3z"/>
				<path class="st44" d="M1131.1,385.4c0.1-0.4,0.1-1,0.4-1.2c1.6-1.2,1.1,0.5,1.1,1c0,8.4,0.4,16.8-0.1,25.1
					c-0.4,6.2,1.4,9.1,7.9,8c-1.4,4.6-5,2-7.5,2.1c-3,0.1-2-2.9-2-4.6C1130.9,405.6,1131,395.5,1131.1,385.4z"/>
				<path class="st45" d="M406,419.7c0-11.5,0-22.9,0-34.4c0.5,0,0.9,0,1.4,0c0,8.3,0.4,16.6-0.1,24.9c-0.4,6.3,1.3,9.2,7.9,8.1
					C412.8,422.8,409.3,420.5,406,419.7z"/>
				<path class="st46" d="M98.2,244.8c10.2-1.9,20.4-1.9,30.6,0C118.6,246.6,108.4,246.7,98.2,244.8z"/>
				<path class="st47" d="M1014.9,283.4c0.9,0.1,1.8,0.3,2.6,0.4c-13.2,0.7-26.4,2.5-39.7-0.5c0.7-1.5,2-0.8,3-1.2
					C992.2,283.6,1003.6,283.8,1014.9,283.4z"/>
				<path class="st42" d="M404.6,235.9c0-12.5,0-25,0-37.6c0.8,12.8,2.8,25.7,0.4,38.5C404.7,236.6,404.6,236.3,404.6,235.9z"/>
				<path class="st48" d="M851.5,86.8c6.6-6,24.5-6.1,30.5-0.3C871.8,83,861.6,83.3,851.5,86.8z"/>
				<path class="st49" d="M931.4,407.5c-0.7,0.5-1.4,0.2-1.4-0.5c0-11.1,0-22.1,0.1-33.2c0-0.7,0.9-1.4,1.4-2.1
					C931.5,383.6,931.5,395.5,931.4,407.5z"/>
				<path class="st50" d="M239.4,63.8c-6.6,2-13.3,1.9-19.9,0C226.2,61.9,232.8,61.9,239.4,63.8z"/>
				<path class="st51" d="M703.2,219.5c0.4,0.1,1,0.1,1.2,0.4c0.6,0.7,0.1,0.9-0.5,1.2c-5.1,2.1-10.4,1.1-15.7,1.2
					c-5.1,0.1-10.1,0-15.3,0c0.4-2.1,2.1-1,3-1.6C685,220.8,694.2,221.6,703.2,219.5z"/>
				<path class="st52" d="M430,62.6c-6.6,1.7-13.3,1.9-19.9-0.1C416.8,60.5,423.4,60.6,430,62.6z"/>
				<path class="st53" d="M1179.3,394c10.2-2.2,19.7,3.3,19.8,11.5c-1.3-5.5-5.4-7.5-10.4-8.7C1185.6,396,1182.5,394.9,1179.3,394z"
					/>
				<path class="st41" d="M125.7,219.4c1,0.2,2,0.3,3,0.5c-9.3,1.3-18.5,1.6-28.1,0.8c1.6-1.6,3.2-0.7,4.6-1.2
					C112,219.4,118.9,219.4,125.7,219.4z"/>
				<path class="st54" d="M256.8,419.5c8-0.5,15.9-1,23.9-1.5C273,421.8,265,422.6,256.8,419.5z"/>
				<path class="st55" d="M300.4,283.4c1.4,0.5,3.1-0.4,4.6,1.3c-9.5,0-18.8,0-28.3,0c1.5-1.7,3.3-0.7,4.6-1.3
					C287.6,283.4,294,283.4,300.4,283.4z"/>
				<path class="st56" d="M1126.1,240.7c6.6-1.7,13.2-1.7,19.8,0C1139.3,242.2,1132.7,242.4,1126.1,240.7z"/>
				<path class="st57" d="M818,239.6c0,0.4,0,0.8,0,1.2c-6.2,1.6-12.4,1.3-18.6,0C805.5,238.4,811.8,240.2,818,239.6z"/>
				<path class="st58" d="M756.9,383.6c0.9,8,1.9,15.9,2.8,23.9c-2.1-3.4-3.6-7-3.1-11.2c-0.8-3.2-0.8-6.3,0-9.5
					C756.7,385.8,756.8,384.7,756.9,383.6z"/>
				<path class="st57" d="M272.8,240.8c7.9-1.9,15.9-1.8,23.9,0C288.8,241.8,280.8,242,272.8,240.8z"/>
				<path class="st59" d="M550.1,240.7c0.4-0.4,0.9-0.7,1.3-1.1c5.3,0.7,10.8-1.3,16,1.3C561.6,242.1,555.9,242.3,550.1,240.7z"/>
				<path class="st60" d="M482.5,83.9c-0.9-0.1-1.8-0.3-2.6-0.4c0-0.3,0-0.7,0-1c7.3,0,14.7-0.1,22,0.2c0.4,0-0.8,1-1.5,1.3
					C494.4,83.9,488.4,83.9,482.5,83.9z"/>
				<path class="st61" d="M94.8,134.2c-6.9-0.6-13.9-1.1-17.8-8.3C82.3,130,88.7,131.7,94.8,134.2z"/>
				<path class="st62" d="M904.4,86.3c-0.1-4.5-0.5-9,1.5-13.2C908.3,77.8,907.5,82.1,904.4,86.3z"/>
				<path class="st63" d="M162.2,107.4c5.3-1.6,10.6-1.8,15.8,0.1C172.8,108.6,167.5,109.1,162.2,107.4z"/>
				<path class="st64" d="M300.4,215.4c1,0.2,2,0.3,3,0.5c0,0.3-0.1,0.6-0.1,1c-6.5,0-12.9,0-19.4,0c-0.1,0-0.4-0.3-0.4-0.4
					c0.1-0.4,0.2-0.7,0.4-1.1C289.4,215.4,294.9,215.4,300.4,215.4z"/>
				<path class="st65" d="M279.5,307.4c7.5-1.9,15-1.9,22.5,0C294.5,308.1,287,308.1,279.5,307.4z"/>
				<path class="st66" d="M1175.4,407.4c-3.1-0.3-6.2-2.4-9.3,0.2c-0.8-2.1-1.2-4.2,2.1-3.7C1170.9,404.3,1175.4,401.4,1175.4,407.4
					z"/>
				<path class="st67" d="M1104.7,373c-0.9-3.3,2.2-3.3,3.7-3.6c3.5-0.7,7.2-0.9,10.8,0.2c0.1,0,0.1,0.4,0,0.6
					c-0.1,0.2-0.3,0.3-0.4,0.5C1113.9,369.9,1109.2,370.9,1104.7,373z"/>
				<path class="st68" d="M651.4,240.8c5.3-2.4,9.5,2.7,14.6,2.6c-1,0.1-2,0.3-3.1,0.4C658.9,243.6,655.1,242.6,651.4,240.8z"/>
				<path class="st69" d="M1143.2,61.2c-6.1,1.5-12.3,1.9-18.5,1.4C1130.7,59.6,1137,61.1,1143.2,61.2z"/>
				<path class="st70" d="M435.5,68.9c0,6.2,0,12.5,0,18.7c-0.7-6.6-2.8-13.3-0.2-19.8C435.5,68.1,435.6,68.4,435.5,68.9z"/>
				<path class="st71" d="M821.3,63.5c-6.3-1.7-13-0.1-19.3-2.3C808.6,61.3,815.4,59,821.3,63.5z"/>
				<path class="st72" d="M56.8,187.8c-5.6,1.7-11.4,1.7-17.2,1.3C45.1,186.5,51,187.2,56.8,187.8z"/>
				<path class="st73" d="M1277.9,59.8c-6.6,1.9-13.3,1.9-19.9,0C1264.6,59.1,1271.3,59.1,1277.9,59.8z"/>
				<path class="st74" d="M1312.2,138.1c0.6,0.1,1.1,0.1,1.7,0.2l0,0c-6.6,2.2-13.3,2-19.9,0.1
					C1300.1,137.5,1306.1,137.9,1312.2,138.1z"/>
				<path class="st75" d="M1027.4,420.6c5.7-1,11.3-2.5,17.2-1.3C1039,421.8,1033.2,421.6,1027.4,420.6z"/>
				<path class="st76" d="M778.1,420.7c5.7-1.4,11.4-2.3,17.2-1.4C789.7,421.9,783.9,421.4,778.1,420.7z"/>
				<path class="st77" d="M850,419.4c5.5-1.6,10.7,0.2,15.9,1.2C860.6,421.4,855.2,421.9,850,419.4z"/>
				<path class="st78" d="M659.9,371.9c3-6,8.4-1.7,12.5-2.8c0,0,0.2,0.5,0.2,0.5c-0.5,0.3-1,0.6-1.5,0.9
					C667.2,370.1,663.5,370.9,659.9,371.9z"/>
				<path class="st79" d="M506.6,370.6c3.3-3.1,10.1-1.9,12.9,2.3C515.4,371,511.2,369.9,506.6,370.6z"/>
				<path class="st80" d="M1207.2,410.2c-1.9-3.5-1.9-7.1,0-10.6C1209,403.2,1208.8,406.7,1207.2,410.2z"/>
				<path class="st81" d="M238.1,257.2c-5,1.5-9.7-0.3-14.5-1.3C228.5,255.5,233.4,254.5,238.1,257.2z"/>
				<path class="st82" d="M1115.5,11.7c1.3,4.8,2.3,9.6,1.3,14.6C1114.3,21.6,1114.4,16.7,1115.5,11.7z"/>
				<path class="st39" d="M630.1,162.3c0.1,0.6,0.1,1.2,0.2,1.8c0.2,3.7-0.1,7.5,1.4,11c-0.3,0.6-0.5,1.1-0.8,1.7
					C629.2,172.1,626.5,167.4,630.1,162.3z"/>
				<path class="st83" d="M1061.8,398.2c-1.8-4.4-1.9-8.8,0.1-13.2C1063.2,389.4,1062.9,393.8,1061.8,398.2z"/>
				<path class="st84" d="M799.1,380.1c3.3,0.3,7,2.5,9.5-1.8c1.5,2.4,2.4,4.8-1.9,4.1C804.1,382.1,800.4,384.6,799.1,380.1z"/>
				<path class="st85" d="M971.4,239.4c4.1-3,7.9,0.8,11.9,0.5c0,1.2-1.1,1-1.8,1.3C978,241.4,974.6,240.7,971.4,239.4z"/>
				<path class="st86" d="M215.3,260.3c-0.3,3.8,1.3,7.7-1.1,11.3C212.6,267.6,211.9,263.7,215.3,260.3z"/>
				<path class="st87" d="M825.1,84.9c-3-5.2-2.2-10.5-0.5-15.9C824.7,74.3,824.9,79.6,825.1,84.9z"/>
				<path class="st88" d="M1080.6,61.2c-5.3,1.7-10.6,1.8-15.9,0C1070,60.5,1075.3,60.5,1080.6,61.2z"/>
				<path class="st89" d="M204.7,381.1c2.9-1.5,7.1,1.6,9.1-2.8c1.1,2.3,2.2,4.7-2.1,4.1C209.4,382.1,206.6,383.8,204.7,381.1z"/>
				<path class="st61" d="M111.3,137.5c-4.2,2.2-7.9-0.8-11.9-1c0,0-0.1-0.4,0-0.6c0.1-0.2,0.3-0.3,0.4-0.5
					C103.7,136.1,107.5,136.8,111.3,137.5z"/>
				<path class="st90" d="M366,62.5c-4.8,1.8-9.7,1.7-14.5,0C356.4,61.9,361.2,62.1,366,62.5z"/>
				<path class="st91" d="M399.4,363.7c-3.5,2.5-6.4,1.1-9.3-1.2C393.3,362.2,396.5,361.9,399.4,363.7z"/>
				<path class="st92" d="M945.7,364.9c-4.7-0.9-10,1.9-14.3-1.9C936.1,364.8,941.3,361.5,945.7,364.9z"/>
				<path class="st93" d="M1056.9,67.7c1.6,4.5,2.2,8.9-0.5,13.2C1056.4,76.5,1055.7,72.1,1056.9,67.7z"/>
				<path class="st94" d="M1195.2,390.5c-2.8,2.5-5.4,0.4-7.8-0.6c-0.7-0.3,0.9-0.7,1.4-1.1C1191.2,388.7,1193.2,389.6,1195.2,390.5
					z"/>
				<path class="st95" d="M765.9,388.9c-1.4-3-2.6-5.9,1.6-7.7C767,383.7,766.4,386.3,765.9,388.9z"/>
				<path class="st96" d="M1006.2,386.3c1.8,4,1.8,7.9,0,11.9C1005.3,394.2,1005.4,390.3,1006.2,386.3z"/>
				<path class="st97" d="M721.1,346.4c1.6,2.1,0.6,5.5,3.7,7c0.6,0.3-0.9,0.8-1.6,1C719.6,352.5,720,349.5,721.1,346.4z"/>
				<path class="st98" d="M386.3,370.4c-0.2-0.1-0.5-0.1-0.6-0.2c-0.3-0.2-0.5-0.5-0.8-0.8c3-0.7,6.1-0.9,9.1,0.1
					c-0.1,0.2-0.1,0.4-0.3,0.5c-0.4,0.2-0.8,0.3-1.2,0.4C390.4,370.4,388.3,370.4,386.3,370.4z"/>
				<path class="st95" d="M342.6,370.6c2.5-3.5,5.9-1,8.8-1.2c0,0,0.2,0.4,0.1,0.6c0,0.2-0.2,0.4-0.3,0.5
					C348.3,370.5,345.4,370.5,342.6,370.6z"/>
				<path class="st99" d="M1291.2,61.2c-3,2-6.2,1-9.3,0.2c1.9-0.2,3.8-0.4,5.7-0.5C1288.8,60.9,1290,61.1,1291.2,61.2z"/>
				<path class="st100" d="M781,370.4c-0.7-0.2-1.9-1.1-1.5-1.1c2.5-0.4,5.1-0.3,7.6,0c0.4,0.1-0.8,0.9-1.5,1.1
					C784.1,370.4,782.6,370.4,781,370.4z"/>
				<path class="st101" d="M970.1,346.3c1.8,2.1,1.7,4.3,0.2,6.6C968.6,350.7,968.4,348.5,970.1,346.3z"/>
				<path class="st102" d="M1167,385.4c3,0.3,4.3,2.1,4.1,5C1168.9,389.4,1167.3,387.9,1167,385.4z"/>
				<path class="st103" d="M1182,420.7c3.5-1.8,7.1-1.9,10.6,0.1C1189.1,421.6,1185.5,421.3,1182,420.7z"/>
				<path class="st104" d="M186.4,370.4c-0.2-0.1-0.5-0.1-0.6-0.2c-0.3-0.2-0.6-0.5-0.8-0.8c2.6-0.8,5.2-0.8,7.8,0
					c-0.1,0.2-0.1,0.4-0.2,0.5c-0.4,0.2-0.8,0.3-1.2,0.4C189.6,370.4,188,370.4,186.4,370.4z"/>
				<path class="st105" d="M945.8,414.3c-2.8,0-5.7,0.6-8.2-0.2c-2.1-0.6,0.4-0.8,0.7-1.3C940.8,413.2,943.9,410.7,945.8,414.3z"/>
				<path class="st106" d="M916.8,137c2.2,3,1,6.1,0.2,9.3c-0.2-2.3-0.3-4.6-0.5-7C916.6,138.6,916.7,137.8,916.8,137z"/>
				<path class="st107" d="M978.2,354.4c-1-2.9,1.6-4.5,2.4-6.7C981.3,350.4,981.3,353,978.2,354.4z"/>
				<path class="st108" d="M730.2,353.7c0.2-2.5-1-5.1,1-7.3C732.9,349.1,732.5,351.5,730.2,353.7z"/>
				<path class="st109" d="M1188.2,414c0.6,0.3,1.9,1.1,1.6,1.2c-2.1,0.3-4.3,0.2-6.4,0c-0.2,0,1-0.8,1.7-1.1
					C1186.1,414,1187.1,414,1188.2,414z"/>
				<path class="st110" d="M184.8,420.8c3.1-1.8,6.2-1.8,9.2-0.1C191,421.5,187.9,421.4,184.8,420.8z"/>
				<path class="st5" d="M756.6,386.9c0,3.2,0,6.3,0,9.5C755.4,393.2,755.1,390,756.6,386.9z"/>
				<path class="st111" d="M34.5,194.4c1.5,2.6,1.6,5.2-0.1,7.8C33.8,199.6,33.6,197,34.5,194.4z"/>
				<path class="st112" d="M764.5,199.6c-1.7-2.6-1.8-5.3,0-7.9C765.3,194.3,765.1,197,764.5,199.6z"/>
				<path class="st113" d="M582.1,420.8c2.6-1.9,5.3-1.8,7.9-0.1C587.4,421.5,584.7,421.4,582.1,420.8z"/>
				<path class="st114" d="M185.8,102.2c-1.4-2.7-1.7-5.3,0.2-7.8C186.8,97,186.8,99.6,185.8,102.2z"/>
				<path class="st115" d="M1166.1,375.6c1.8,2.2,1.8,4.4,0,6.6C1165.4,380,1165.3,377.8,1166.1,375.6z"/>
				<path class="st116" d="M1134,39.5c2.2-1.7,4.4-1.7,6.6,0.1C1138.4,40.1,1136.2,40,1134,39.5z"/>
				<path class="st117" d="M276.7,363.9c-1.7,1.4-3.5,1.3-6.3,0.2c1.8-0.3,2.8-0.4,3.8-0.6C275.1,363.6,275.9,363.8,276.7,363.9z"/>
				<path class="st118" d="M766.2,397.9c-0.2,0.5-0.5,1.1-0.7,1.6c-0.2-0.2-0.7-0.4-0.7-0.6c-0.1-1.6-0.5-3.4,1-4.7
					C766,395.5,766.1,396.7,766.2,397.9z"/>
				<path class="st119" d="M1043.3,363.8c-1.6,1.5-3.3,1.3-5.3,0.7c0.7-1.5,2.2-0.6,3.1-1.1C1041.8,363.5,1042.5,363.7,1043.3,363.8
					z"/>
				<path class="st120" d="M1056.4,157.9c-1.6,9.6-2.3,19.3-6,28.5c-7.8,19.5-25.1,31.4-47.2,31.8c-22,0.4-39.6-10.2-47.8-29.6
					c-10.6-25-10.2-50.3,1.3-74.8c9.5-20.2,26.8-29.1,48.7-28.4c22.5,0.6,38.5,12.6,45.9,33.2c0.8,2.3,1.7,4.6,2.5,6.8
					c2.5,3.8,1.7,8.4,2.7,12.5c0.5,3.4-0.1,6.9,0.4,10.3C1057.9,151.5,1056.9,154.7,1056.4,157.9z"/>
				<path class="st121" d="M1056.4,157.9c-2.4-2.8,0.5-5.6,0.1-8.3c-1.2-3.6,0.2-7.5-0.9-11.2c-0.6-4.3-1.2-8.6-1.8-13
					c0.4-0.8,0.7-3.5,1.5-0.4c3.1,11.7,3.1,23.7,1.6,35.8C1056.7,159.9,1056.5,158.9,1056.4,157.9z"/>
				<path class="st122" d="M1057,235.3c0-7.4,0-14.8,0-22.3c0.2,0,0.4,0,0.7,0c0,7.4,0,14.9,0,22.3
					C1057.5,235.3,1057.2,235.3,1057,235.3z"/>
				<path class="st120" d="M1311.2,160.8c1.9,0.7,1.8,2.2,1.7,3.8c-0.8,21.4-5.8,44.6-35.2,53.7c-3.3,2.4-7.3,2.1-11.1,2.7
					c-7.1,0-14.2,0.1-21.3,0c-3.7-1-7.8-0.3-11.1-2.7c-8.9-3.6-17.4-7.6-20.4-18.1c-3.5-12.3,0.9-23.6,12-29.9
					c7.9-4.4,16.6-5.6,25.4-6.8c0.6-0.4,1.2-0.7,1.9-0.9c2.9-0.3,5.9-0.1,8.7-0.8c6.2-0.3,12.4,0.6,18.5-0.5
					c5.9-0.6,11.8,0.5,17.7-0.7C1302.5,160.4,1306.9,159.9,1311.2,160.8z"/>
				<path class="st123" d="M1252.7,163.3c-0.5,0-0.9,0.1-1.4,0.1c0.4-2.4,2.1-2.5,4-2.4c17.2,0.7,34.4-2.3,51.6-1.4
					c1.5,0.1,3.1-0.2,4.3,1.1c-4.3,0.1-8.5,0.2-12.8,0.4c-5.9,1.4-11.9-0.4-17.7,1c-6.6,0.1-13.1,0.2-19.7,0.4
					C1258.3,163.6,1255.4,162.3,1252.7,163.3z"/>
				<path class="st124" d="M1234.2,218.2c3.5,0.6,7,1.1,10.4,1.7c7.5,0.8,15,0.7,22.5,0c3.5-0.6,7.1-1.1,10.6-1.7
					c2.5,0.6,1.8,1.1-0.1,1.6c-11.2,3.4-22.6,2.8-34,1.8c-3.5-0.3-7.1-0.9-10.2-2.2C1231.2,218.6,1233.8,218.6,1234.2,218.2z"/>
				<path class="st52" d="M1313.9,138.3c0-8.3,0-16.6,0-24.9C1314.6,121.7,1316.8,130.1,1313.9,138.3
					C1313.9,138.3,1313.9,138.3,1313.9,138.3z"/>
				<path class="st125" d="M1315,162.5c0,2.1,0,4.2,0,6.2c-0.2,0-0.4,0-0.6,0c0-2.1,0-4.2,0-6.2
					C1314.6,162.5,1314.8,162.5,1315,162.5z"/>
				<path class="st120" d="M631.5,140.4c1-6.8,2.6-13.5,5-19.9c9.4-25.3,29.8-37.1,58.6-34.1c22.5,2.4,38.1,19.5,41.5,45.2
					c0.3,2,0.8,3.9,1.2,5.8c1.3,1.2,1.3,2.4-0.1,3.5l0.3-0.3c-1.2,1.5-2.8,1-4.3,1c-32.5,0-65,0-97.5,0
					C634.6,141.6,632.6,142.6,631.5,140.4z"/>
				<path class="st126" d="M631.5,140.4c31.1,0.1,62.1,0.3,93.2,0.4c4.4,0,8.9-0.1,13.3-0.1c-1.5,2.5-3.9,1.6-6,1.6
					c-31.6,0-63.2,0-94.7,0C635.2,142.3,632.7,143.1,631.5,140.4z"/>
				<path class="st126" d="M737.7,140.9c0-1.2,0.1-2.3,0.1-3.5c0.2-1,0.4-2,1-4.9C739.3,136.7,740.3,139.1,737.7,140.9z"/>
				<path class="st127" d="M69.8,108c0,2.1,0,4.1,0,7.2C68.4,112.1,68.7,109.9,69.8,108z"/>
				<path class="st42" d="M405.8,162.5c0,10.5,0,21.1,0,31.6c-0.2,0-0.4,0-0.7,0c0-10.5,0-21,0-31.5
					C405.3,162.6,405.6,162.6,405.8,162.5z"/>
				<path class="st42" d="M405.1,140.9c0-5.6,0-11.3,0-16.9c0.2,0,0.4,0,0.5,0c0,5.6,0,11.3,0,16.9
					C405.5,140.9,405.3,140.9,405.1,140.9z"/>
				<path class="st42" d="M405.1,158.1c0-4.3,0-8.7,0-13c0.2,0,0.4,0,0.7,0c0,4.2,0,8.5,0,12.7C405.5,158,405.3,158,405.1,158.1z"/>
				<path class="st128" d="M528.8,418.3c-0.4,0-0.9,0-1.3,0c0-10.6,0-21.1,0-31.7c0.4,0,0.9,0,1.3,0
					C528.8,397.1,528.8,407.7,528.8,418.3z"/>
				<path class="st129" d="M860.3,370.5c17.2,3.2,25.3,18.5,17.4,32.9c-5.6,10.1-18.3,12.9-27.3,5.6c-7.2-5.8-8.5-13.8-6.9-22.3
					c1.5-7.7,5.6-13.4,13.8-15.3c0.8-0.2,1.6-0.6,2.5-0.9L860.3,370.5z"/>
				<path class="st130" d="M841.7,389.1c0,2.1,0,4.1,0,6.2c-0.2,0-0.4,0-0.6,0c0-2,0-4.1,0-6.1C841.3,389.2,841.5,389.1,841.7,389.1
					z"/>
				<path class="st131" d="M860.3,370.5l-0.3,0.2c0,0-0.3-0.2-0.3-0.2c-0.5-0.4-2.2-0.9-1.4-1.2c2-0.7,4.3-0.8,7,0.4
					C863.3,370,861.8,370.3,860.3,370.5z"/>
				<path class="st120" d="M248.7,391.7c0.1-12.9,7.6-21.4,18.8-21.2c10.5,0.2,18.4,9.5,18.1,21.4c-0.3,12.9-7.9,21.2-19,21
					C255.7,412.8,248.6,404.3,248.7,391.7z"/>
				<path class="st129" d="M1015.6,386.7c2.3-7.8,6.4-14,14.8-16.2c2.4-1.3,4.8-1.3,7.2,0c12.6,5.7,17,14.6,13.8,27.8
					c-2.1,8.8-8.4,14.4-16.6,14.7c-9,0.3-15.2-4.3-18.1-13.5c-0.3-1-0.8-2-1.1-3C1014.1,393.2,1014.2,389.9,1015.6,386.7z"/>
				<path class="st132" d="M1015.6,386.7c0,3.2,0,6.5,0,9.7c-0.2,0.7-1.2,1.8-1.2,1.7c-0.4-3.9-0.9-7.9,0.2-11.8
					c0-0.1,0.4-0.1,0.5,0C1015.3,386.4,1015.4,386.6,1015.6,386.7z"/>
				<path class="st133" d="M1037.6,370.5c-2.4,0-4.8,0-7.2,0c-0.6-0.4-1.9-1.2-1.4-1.2c3-0.3,6,0,9,0.1c0,0,0.1,0.4,0.1,0.6
					C1037.9,370.2,1037.8,370.3,1037.6,370.5z"/>
				<path class="st5" d="M723.4,418.3c0-17.8,0-35.5,0-53.3c3.9-0.5,5.5,1,5.4,5.2c-0.2,14.3-0.2,28.7,0,43
					C728.8,417.2,727.3,418.8,723.4,418.3z"/>
				<path class="st1" d="M1055.6,138.4c2.1,3.6,0.7,7.4,0.9,11.1C1055.1,145.9,1055.6,142.1,1055.6,138.4z"/>
				<path class="st1" d="M1267.2,219.9c-7.5,1.8-15,1.8-22.5,0C1252.2,219.9,1259.7,219.9,1267.2,219.9z"/>
				<path class="st1" d="M1280.7,162.1c5.8-2.3,11.8-0.7,17.7-1C1292.5,162.7,1286.6,162.3,1280.7,162.1z"/>
				<path class="st1" d="M1252.7,163.3c2.6-1.9,5.5-0.8,8.3-0.9C1258.3,163.7,1255.5,163.6,1252.7,163.3z"/>
			</g>
		</g>
	</g>
</g>
</svg>
