<?xml version="1.0" encoding="UTF-8" standalone="no"?>
<!-- Generator: Adobe Illustrator 25.3.1, SVG Export Plug-In . SVG Version: 6.00 Build 0)  -->

<svg
   version="1.1"
   id="Layer_1"
   x="0px"
   y="0px"
   viewBox="0 0 999.99992 266.93797"
   xml:space="preserve"
   sodipodi:docname="TvOne_2023.svg"
   width="1000.0001"
   height="266.93796"
   inkscape:version="1.2.1 (9c6d41e410, 2022-07-14)"
   xmlns:inkscape="http://www.inkscape.org/namespaces/inkscape"
   xmlns:sodipodi="http://sodipodi.sourceforge.net/DTD/sodipodi-0.dtd"
   xmlns="http://www.w3.org/2000/svg"
   xmlns:svg="http://www.w3.org/2000/svg"><defs
   id="defs13">
	
	

	

		
		
		
	<linearGradient
   id="linearGradient8913"
   spreadMethod="pad"
   gradientTransform="matrix(-35.636094,190.28103,-190.28103,-35.636094,968.2221,170.65686)"
   gradientUnits="userSpaceOnUse"
   y2="0"
   x2="1"
   y1="0"
   x1="0"><stop
     id="stop8915"
     offset="0"
     style="stop-opacity:1;stop-color:#ffffff" /><stop
     id="stop8917"
     offset="0.26240722"
     style="stop-opacity:1;stop-color:#ffffff" /><stop
     id="stop8919"
     offset="0.467026"
     style="stop-opacity:1;stop-color:#f9b099" /><stop
     id="stop8921"
     offset="0.6415805"
     style="stop-opacity:1;stop-color:#f47f5e" /><stop
     id="stop8923"
     offset="0.642853"
     style="stop-opacity:1;stop-color:#f47f5e" /><stop
     id="stop8925"
     offset="0.8238147"
     style="stop-opacity:1;stop-color:#bd383b" /><stop
     id="stop8927"
     offset="0.824173"
     style="stop-opacity:1;stop-color:#bd383b" /><stop
     id="stop8929"
     offset="0.82933269"
     style="stop-opacity:1;stop-color:#bd383b" /><stop
     id="stop8931"
     offset="0.978027"
     style="stop-opacity:1;stop-color:#943234" /><stop
     id="stop8933"
     offset="1"
     style="stop-opacity:1;stop-color:#943234" /></linearGradient><radialGradient
   id="radialGradient8867-3"
   spreadMethod="pad"
   gradientTransform="matrix(160.1072,0,0,160.1072,388.77905,132.98515)"
   gradientUnits="userSpaceOnUse"
   r="1"
   cy="0"
   cx="0"
   fy="0"
   fx="0"><stop
     id="stop8869-8"
     offset="0"
     style="stop-opacity:1;stop-color:#e3a38d" /><stop
     id="stop8871-9"
     offset="0.186813"
     style="stop-opacity:1;stop-color:#e3a38d" /><stop
     id="stop8873-6"
     offset="0.45313496"
     style="stop-opacity:1;stop-color:#e3a38d" /><stop
     id="stop8875-5"
     offset="0.664841"
     style="stop-opacity:1;stop-color:#da6249" /><stop
     id="stop8877-2"
     offset="0.84610843"
     style="stop-opacity:1;stop-color:#cb3a3c" /><stop
     id="stop8879-0"
     offset="0.846161"
     style="stop-opacity:1;stop-color:#cb3a3c" /><stop
     id="stop8881-6"
     offset="0.84717309"
     style="stop-opacity:1;stop-color:#cb3a3c" /><stop
     id="stop8883-4"
     offset="0.961533"
     style="stop-opacity:1;stop-color:#b03a39" /><stop
     id="stop8885-4"
     offset="1"
     style="stop-opacity:1;stop-color:#b03a39" /></radialGradient><clipPath
   id="clipPath8827-6"
   clipPathUnits="userSpaceOnUse"><path
     id="path8829-7"
     d="M 0,0 H 595.276 V 841.89 H 0 Z"
     inkscape:connector-curvature="0" /></clipPath><radialGradient
   id="radialGradient8765-4"
   spreadMethod="pad"
   gradientTransform="matrix(225.61767,0,0,237.49204,484.51065,63.098405)"
   gradientUnits="userSpaceOnUse"
   r="1"
   cy="0"
   cx="0"
   fy="0"
   fx="0"><stop
     id="stop8767-8"
     offset="0"
     style="stop-opacity:1;stop-color:#fac9c8" /><stop
     id="stop8769-4"
     offset="0.45560162"
     style="stop-opacity:1;stop-color:#e84f39" /><stop
     id="stop8771-5"
     offset="0.456039"
     style="stop-opacity:1;stop-color:#e84f39" /><stop
     id="stop8773-8"
     offset="0.458846"
     style="stop-opacity:1;stop-color:#e84f39" /><stop
     id="stop8775-9"
     offset="0.699997"
     style="stop-opacity:1;stop-color:#bd383b" /><stop
     id="stop8777-3"
     offset="0.70919234"
     style="stop-opacity:1;stop-color:#bd383b" /><stop
     id="stop8779-8"
     offset="1"
     style="stop-opacity:1;stop-color:#7f2f31" /></radialGradient><linearGradient
   id="linearGradient8913-7"
   spreadMethod="pad"
   gradientTransform="matrix(-2.2189484,-11.848206,-11.848206,2.2189484,121.98157,443.09973)"
   gradientUnits="userSpaceOnUse"
   y2="0"
   x2="1"
   y1="0"
   x1="0"><stop
     id="stop8915-5"
     offset="0"
     style="stop-opacity:1;stop-color:#ffffff" /><stop
     id="stop8917-5"
     offset="0.26240722"
     style="stop-opacity:1;stop-color:#ffffff" /><stop
     id="stop8919-1"
     offset="0.467026"
     style="stop-opacity:1;stop-color:#f9b099" /><stop
     id="stop8921-5"
     offset="0.6415805"
     style="stop-opacity:1;stop-color:#f47f5e" /><stop
     id="stop8923-1"
     offset="0.642853"
     style="stop-opacity:1;stop-color:#f47f5e" /><stop
     id="stop8925-5"
     offset="0.8238147"
     style="stop-opacity:1;stop-color:#bd383b" /><stop
     id="stop8927-2"
     offset="0.824173"
     style="stop-opacity:1;stop-color:#bd383b" /><stop
     id="stop8929-8"
     offset="0.82933269"
     style="stop-opacity:1;stop-color:#bd383b" /><stop
     id="stop8931-5"
     offset="0.978027"
     style="stop-opacity:1;stop-color:#943234" /><stop
     id="stop8933-7"
     offset="1"
     style="stop-opacity:1;stop-color:#943234" /></linearGradient><radialGradient
   id="radialGradient8867-3-8"
   spreadMethod="pad"
   gradientTransform="matrix(9.9693756,0,0,-9.9693756,85.901459,445.44543)"
   gradientUnits="userSpaceOnUse"
   r="1"
   cy="0"
   cx="0"
   fy="0"
   fx="0"><stop
     id="stop8869-8-6"
     offset="0"
     style="stop-opacity:1;stop-color:#e3a38d" /><stop
     id="stop8871-9-8"
     offset="0.186813"
     style="stop-opacity:1;stop-color:#e3a38d" /><stop
     id="stop8873-6-2"
     offset="0.45313496"
     style="stop-opacity:1;stop-color:#e3a38d" /><stop
     id="stop8875-5-0"
     offset="0.664841"
     style="stop-opacity:1;stop-color:#da6249" /><stop
     id="stop8877-2-6"
     offset="0.84610843"
     style="stop-opacity:1;stop-color:#cb3a3c" /><stop
     id="stop8879-0-5"
     offset="0.846161"
     style="stop-opacity:1;stop-color:#cb3a3c" /><stop
     id="stop8881-6-9"
     offset="0.84717309"
     style="stop-opacity:1;stop-color:#cb3a3c" /><stop
     id="stop8883-4-7"
     offset="0.961533"
     style="stop-opacity:1;stop-color:#b03a39" /><stop
     id="stop8885-4-5"
     offset="1"
     style="stop-opacity:1;stop-color:#b03a39" /></radialGradient><clipPath
   id="clipPath8827-6-1"
   clipPathUnits="userSpaceOnUse"><path
     id="path8829-7-5"
     d="M 0,0 H 595.276 V 841.89 H 0 Z" /></clipPath><radialGradient
   id="radialGradient8765-4-7"
   spreadMethod="pad"
   gradientTransform="matrix(225.61767,0,0,237.49204,484.51065,63.098529)"
   gradientUnits="userSpaceOnUse"
   r="1"
   cy="0"
   cx="0"
   fy="0"
   fx="0"><stop
     id="stop8767-8-7"
     offset="0"
     style="stop-opacity:1;stop-color:#fac9c8" /><stop
     id="stop8769-4-4"
     offset="0.45560162"
     style="stop-opacity:1;stop-color:#e84f39" /><stop
     id="stop8771-5-7"
     offset="0.456039"
     style="stop-opacity:1;stop-color:#e84f39" /><stop
     id="stop8773-8-8"
     offset="0.458846"
     style="stop-opacity:1;stop-color:#e84f39" /><stop
     id="stop8775-9-9"
     offset="0.699997"
     style="stop-opacity:1;stop-color:#bd383b" /><stop
     id="stop8777-3-9"
     offset="0.70919234"
     style="stop-opacity:1;stop-color:#bd383b" /><stop
     id="stop8779-8-7"
     offset="1"
     style="stop-opacity:1;stop-color:#7f2f31" /></radialGradient><clipPath
   id="clipPath8893-2-5"
   clipPathUnits="userSpaceOnUse"><path
     id="path8895-4-8"
     d="m 88.454,453.726 c -1.89,-0.005 -3.649,-0.58 -5.11,-1.565 v 0 c -1.516,-1.024 -2.711,-2.491 -3.402,-4.213 v 0 l -0.093,-0.389 -0.072,-0.106 -0.012,-0.133 -0.034,-0.066 -0.019,-0.139 v -0.135 l -0.118,-0.17 -0.009,-0.244 v -0.155 l -0.038,-0.08 -0.015,-0.237 -0.056,-0.227 0.056,-0.169 -0.056,-0.121 0.071,0.013 -0.015,-0.169 0.015,-0.145 v -0.141 l 0.137,-0.047 0.016,0.246 -0.016,0.243 -0.021,0.082 -0.013,0.13 0.059,0.146 0.046,0.199 0.013,0.131 0.034,0.052 0.059,0.153 -0.046,0.152 0.046,0.057 v 0.149 l 0.081,0.074 0.069,0.205 0.016,0.132 0.078,0.018 0.103,0.063 0.239,0.329 0.054,0.143 v 0.178 l 0.07,-0.081 0.078,0.059 0.033,0.062 0.072,0.052 0.197,0.029 0.139,0.059 0.069,-0.022 -0.006,-0.14 0.046,-0.106 -0.023,-0.111 0.03,-0.069 -0.041,-0.116 v -0.138 l 0.02,-0.101 -0.009,-0.061 -0.051,-0.047 -0.047,-0.091 0.004,-0.087 0.043,-0.068 v -0.047 l 0.159,-0.012 0.014,0.046 0.04,0.088 0.122,-0.007 -0.009,-0.127 c 0,0 -0.029,-0.046 -0.027,-0.107 v 0 c 0,-0.02 0.004,-0.043 0.013,-0.065 v 0 l 0.129,-0.245 -0.071,-0.044 v -0.071 l -0.058,-0.141 0.014,-0.046 -0.036,-0.06 -0.015,-0.123 -0.024,-0.076 0.024,-0.058 0.017,-0.053 -0.041,-0.062 v -0.09 l -0.024,-0.046 v -0.092 l -0.075,-0.047 0.041,-0.056 v -0.074 l 0.011,-0.069 0.108,-0.14 0.023,-0.164 0.058,-0.113 v -0.08 l 0.029,-0.056 v -0.027 l 0.016,-0.045 -0.013,-0.046 0.038,-0.062 -0.025,-0.053 0.025,-0.081 v -0.072 l 0.006,-0.066 0.075,-0.061 0.059,-0.109 0.054,-0.038 0.024,-0.105 0.044,-0.035 0.036,-0.018 0.094,-0.081 0.072,-0.035 0.077,-0.055 v 0.077 l -0.018,0.147 -0.028,0.047 -0.043,0.03 v 0.028 l -0.016,0.129 0.016,0.161 0.018,0.04 v 0.084 l -0.018,0.094 -0.073,0.08 -0.033,0.068 -0.069,0.091 h -0.077 l -0.006,0.049 -0.016,0.044 -0.031,0.097 -0.047,0.011 -0.071,0.056 -0.023,0.073 -0.006,0.094 0.022,0.093 0.007,0.039 -0.023,0.109 -0.031,0.014 -0.068,0.021 -0.013,0.037 -0.003,0.079 0.034,0.039 0.026,0.06 0.024,0.109 -0.013,0.078 0.107,0.073 -0.04,0.076 0.027,0.025 0.06,0.028 -0.024,0.068 v 0.043 l 0.048,0.083 0.038,0.039 0.053,-0.016 0.031,-0.099 0.036,-0.016 0.029,-0.034 0.056,-0.028 0.025,-0.068 v -0.05 l 0.046,-0.069 0.033,-0.072 0.008,-0.082 0.006,-0.039 0.04,-0.018 0.028,-0.031 -0.005,-0.031 0.071,0.002 0.054,-0.002 0.086,-0.047 -0.041,-0.065 -0.015,-0.082 0.015,-0.068 -0.018,-0.027 0.018,-0.06 0.062,0.016 0.053,0.005 0.019,0.088 0.056,0.035 0.113,0.033 v 0.082 l 0.04,0.043 0.027,0.018 0.014,0.04 0.074,0.022 h 0.099 l 0.091,0.122 0.053,0.031 0.108,0.059 -0.008,0.122 0.061,0.061 v 0.082 l 0.031,0.056 v 0.109 l 0.029,0.084 v 0.034 l -0.019,0.115 -0.024,0.124 0.014,0.047 -0.024,0.059 -0.068,0.071 v 0.039 l -0.047,0.064 -0.041,0.05 -0.091,0.059 -0.012,0.063 -0.02,0.058 -0.042,0.022 0.056,0.056 -0.047,0.038 -0.025,0.063 0.007,0.034 h -0.034 l -0.019,0.047 0.062,0.101 0.028,0.047 0.006,0.065 0.04,0.059 h 0.054 l -0.005,0.134 0.042,-0.04 0.088,0.068 -0.047,0.003 0.047,0.044 h 0.086 l 0.041,-0.01 0.035,0.041 0.03,0.05 0.012,0.037 0.045,0.009 h 0.036 l 0.038,-0.009 0.041,0.009 0.036,-0.016 v -0.046 l 0.003,-0.047 0.019,-0.046 0.025,-0.065 -0.02,-0.05 0.014,-0.025 -0.063,-0.013 -0.046,-0.005 -0.056,-0.082 -0.027,0.031 -0.045,-0.036 0.016,-0.029 -0.065,0.011 -0.02,-0.039 -0.057,-0.1 0.057,-0.03 0.007,-0.083 0.047,-0.019 0.031,-0.017 0.093,-0.009 0.035,0.043 0.055,-0.03 0.059,0.077 0.044,0.06 0.05,0.067 0.047,0.041 0.037,0.022 -0.016,0.14 -0.059,0.01 -0.029,0.015 -0.021,0.043 0.041,0.038 0.019,0.075 0.009,0.052 h 0.05 0.04 l 0.006,0.053 h 0.14 l 0.071,0.022 -0.006,0.051 0.069,-0.011 0.028,-0.013 0.044,-0.012 -0.01,0.036 0.094,0.014 0.033,0.09 0.051,0.013 v 0.069 l 0.053,-0.021 0.003,-0.048 0.06,0.013 0.033,0.049 0.146,-0.009 0.138,-0.005 0.04,0.045 0.006,0.035 0.109,0.03 0.071,0.013 v 0.025 l 0.037,0.047 -0.021,0.068 0.05,-0.003 0.048,0.029 0.023,0.031 0.047,0.026 v 0.042 l 0.09,0.036 0.035,-0.043 0.006,0.075 h 0.045 l 0.036,0.093 0.037,0.04 0.044,-0.04 0.028,0.019 0.02,0.041 0.041,0.003 -0.061,0.059 h 0.043 l 0.043,0.031 v 0.068 l 0.057,0.059 0.012,0.035 0.059,0.021 0.031,0.078 0.074,-0.015 -0.003,0.058 0.023,0.056 0.065,-0.002 0.015,0.037 0.038,0.013 0.008,0.033 0.047,0.027 0.038,0.011 v 0.065 l 0.01,0.051 0.043,0.025 h 0.052 l 0.026,0.064 0.018,0.063 h -0.044 l -0.006,0.055 -0.043,0.004 -0.044,-0.004 -0.059,0.004 -0.046,0.009 0.09,0.066 0.013,0.052 h 0.114 l -0.009,0.071 0.016,0.1 -0.007,0.047 -0.074,0.049 -0.04,0.097 -0.035,0.04 -0.009,0.081 -0.059,0.088 -0.047,0.015 -0.051,0.078 0.007,0.047 0.038,0.012 0.077,0.034 0.031,0.059 h 0.048 l 0.075,0.06 0.079,0.049 0.048,0.02 h 0.055 l 0.043,-0.02 0.047,0.031 0.056,0.028 0.082,0.032 0.015,0.037 -0.015,0.044 -0.075,0.021 h -0.034 l -0.038,-0.021 -0.071,0.01 -0.065,0.011 -0.063,-0.011 -0.099,0.011 0.006,-0.031 -0.031,-0.027 -0.028,-0.049 -0.106,0.005 v 0.044 l -0.009,0.058 h -0.09 l -0.093,0.05 0.024,0.031 0.031,0.053 -0.009,0.065 h 0.047 0.077 l 0.027,0.03 0.066,-0.021 0.069,0.021 0.025,0.029 0.037,0.063 0.031,0.006 h 0.04 l 0.054,0.013 0.049,0.062 h 0.043 l 0.038,0.065 h 0.072 l 0.031,-0.009 0.037,-0.004 0.019,-0.072 -0.029,-0.033 -0.027,-0.009 -0.038,-0.06 -0.027,-0.044 0.018,-0.037 0.016,-0.031 h 0.031 l 0.027,0.061 0.065,-0.015 0.092,0.044 0.046,0.022 0.072,0.034 0.068,-0.022 0.115,-0.012 0.025,-0.044 -0.046,-0.028 -0.01,-0.04 0.044,-0.018 -0.065,-0.029 v -0.062 -0.031 h 0.074 l 0.028,-0.049 0.037,0.021 0.048,0.016 h 0.041 v -0.05 l -0.048,-0.034 0.034,-0.022 -0.022,-0.063 v -0.109 l -0.012,-0.053 0.012,-0.038 -0.043,-0.033 -0.028,-0.056 v -0.03 l 0.037,-0.057 0.07,0.031 0.047,0.013 0.035,0.013 0.017,0.065 0.077,-0.028 h 0.043 l 0.034,0.021 0.023,0.019 0.074,0.009 h 0.05 l 0.038,0.025 0.061,0.046 0.016,0.075 0.007,0.087 0.034,0.051 -0.069,0.068 0.012,0.057 -0.078,0.036 0.007,0.038 -0.038,0.055 -0.04,-0.002 -0.037,0.064 -0.094,-0.006 0.034,0.038 0.023,0.068 0.037,0.026 0.077,0.009 0.026,0.065 0.06,-0.032 0.023,0.041 h 0.063 l -0.016,0.044 v 0.016 l 0.068,0.039 0.013,0.079 0.071,-0.016 -0.011,0.062 0.068,0.028 0.108,0.035 0.022,0.025 h 0.056 l 0.055,-0.031 0.013,0.065 0.091,-0.065 h 0.062 l 0.05,-0.007 0.062,-0.015 0.053,0.022 -0.037,0.065 0.049,-0.01 0.062,0.032 0.003,0.069 h 0.044 l 0.034,-0.038 h 0.047 l 0.056,0.087 0.006,0.037 0.103,0.025 0.032,0.037 0.076,0.028 h 0.049 l 0.014,-0.034 0.038,0.006 0.034,0.035 0.012,0.022 0.14,-0.007 0.084,0.043 0.041,0.014 0.102,-0.033 0.084,-0.046 -0.031,-0.11 v -0.052 l -0.051,-0.061 -0.042,-0.085 -0.069,-0.006 0.013,-0.109 0.018,-0.028 -0.018,-0.066 0.025,-0.08 0.018,-0.053 -0.025,-0.031 v -0.126 l -0.047,-0.064 0.016,-0.058 h -0.062 v -0.057 l -0.049,-0.022 -0.037,-0.028 -0.101,-0.068 -0.065,0.034 -0.074,-0.056 -0.064,-0.012 -0.045,-0.019 -0.065,-0.013 v -0.039 l -0.029,-0.035 0.019,-0.038 -0.044,-0.069 -0.087,0.02 -0.068,-0.007 -0.059,-0.051 -0.038,0.051 h -0.06 l -0.067,-0.022 -0.04,0.022 h -0.134 l -0.035,-0.051 -0.04,-0.008 h -0.078 l -0.012,-0.034 -0.047,-0.012 -0.059,-0.035 -0.012,-0.056 -0.044,-0.016 -0.071,-0.018 -0.034,-0.047 -0.05,-0.043 -0.047,-0.032 v -0.056 l 0.037,-0.092 0.06,-0.094 0.021,-0.028 -0.043,-0.03 0.022,-0.046 0.034,-0.008 0.071,-0.022 0.071,-0.014 0.053,0.008 0.05,0.006 0.019,0.057 v 0.09 l 0.052,-0.013 v 0.094 l -0.052,0.074 v 0.031 l 0.037,0.047 0.068,0.049 0.072,0.042 0.013,-0.042 -0.019,-0.053 -0.014,-0.043 v -0.031 l 0.033,-0.003 0.043,-0.019 0.01,0.053 0.025,0.057 0.067,-0.01 0.051,-0.047 0.037,0.016 -0.006,0.102 0.046,0.125 0.037,0.04 0.038,0.007 0.035,-0.018 0.031,-0.047 v -0.029 l 0.021,-0.078 0.04,-0.061 h 0.041 l 0.062,0.039 0.044,0.022 0.016,0.047 v 0.06 l -0.029,0.111 0.037,0.025 0.07,-0.003 -0.008,-0.047 0.052,-0.006 h 0.039 l 0.031,-0.033 h 0.059 l 0.131,0.03 0.046,-0.047 0.054,0.035 h 0.049 l 0.075,-0.028 0.05,0.028 -0.034,0.068 0.084,-0.014 -0.007,0.051 0.061,0.007 v 0.087 l -0.03,0.035 0.048,0.02 -0.009,0.088 0.009,0.093 -0.009,0.065 0.049,0.028 0.012,0.056 -0.022,0.052 0.017,0.041 -0.007,0.085 -0.093,0.059 h 0.053 l -0.026,0.079 -0.084,0.011 -0.102,0.053 0.018,0.075 0.053,0.028 h 0.057 l 0.036,0.024 0.03,-0.037 0.058,0.028 0.052,-0.074 0.042,0.031 h 0.051 l 0.067,-0.007 0.024,0.05 0.018,0.094 0.025,-0.004 0.034,-0.03 0.041,0.012 0.016,0.046 -0.016,0.044 -0.031,0.023 -0.021,0.014 0.003,0.043 0.044,0.027 0.048,0.03 0.014,0.042 0.021,0.009 0.038,-0.023 0.034,-0.005 0.031,0.011 0.022,0.028 -0.022,0.056 -0.025,0.059 -0.04,0.007 -0.013,0.011 -0.025,0.023 0.025,-0.006 0.037,-0.01 0.01,0.047 0.053,0.067 v 0.044 l -0.087,0.1 v 0.063 l 0.046,0.015 0.041,0.077 0.078,0.038 0.068,0.044 h 0.077 l 0.014,-0.057 0.064,0.013 h 0.116 v 0.055 l 0.052,-0.019 0.07,-0.039 0.071,-0.01 h 0.046 l 0.044,0.041 v 0.072 l 0.05,-0.016 0.008,0.034 v 0.028 l -0.008,0.093 0.067,0.022 -0.022,0.085 -0.051,0.037 -0.018,0.05 -0.052,-0.007 -0.067,-0.013 -0.063,0.022 -0.044,0.066 v 0.09 l 0.127,0.031 h 0.084 c -0.695,0.195 -1.425,0.32 -2.175,0.35 v 0 c -0.002,0 -0.004,0 -0.006,0 v 0 c -0.022,10e-4 -0.044,10e-4 -0.066,10e-4 v 0 c -0.006,10e-4 -0.011,10e-4 -0.015,10e-4 v 0 c -0.019,0.001 -0.038,0.001 -0.057,0.001 v 0 c -0.008,10e-4 -0.017,10e-4 -0.025,10e-4 v 0 c -0.016,0 -0.032,0.001 -0.048,0.001 v 0 c -0.012,0 -0.022,0 -0.034,0 v 0 c -0.014,10e-4 -0.026,10e-4 -0.039,10e-4 v 0 c -0.014,0 -0.028,0 -0.042,0 m -2.806,-6.17 -0.037,0.006 -0.031,-0.022 h -0.026 l -0.006,-0.065 h -0.015 l -0.009,-0.08 h -0.017 l -0.006,-0.079 0.006,-0.012 -0.01,-0.018 v -0.047 l 0.01,-0.004 -0.006,-0.057 h -0.015 v -0.009 h -0.005 l -0.02,-0.095 0.02,-0.022 v -0.059 l -0.064,-0.013 -0.024,0.024 v 0.004 h -0.016 v 0.018 h -0.016 l -0.005,0.035 -0.025,-0.009 v -0.072 h 0.025 v -0.078 l 0.005,-0.012 v -0.062 l 0.016,-0.018 -0.016,-0.075 0.022,-0.004 v -0.025 h 0.034 v -0.03 l 0.026,-0.01 v -0.031 l 0.054,0.081 v -0.022 h 0.048 l -0.003,-0.015 h 0.012 v -0.019 l 0.02,-0.003 -0.02,-0.028 -0.006,-0.016 -0.011,-0.028 h -0.02 l -0.01,-0.007 h -0.021 l 0.011,-0.052 v -0.019 l 0.045,-0.014 v -0.004 l 0.032,-0.025 v -0.027 l 0.062,-0.006 0.003,0.014 0.022,0.025 0.034,0.019 0.065,0.031 -0.018,0.006 -0.012,0.025 v 0.034 h -0.014 l 0.005,0.035 h -0.017 l 0.022,0.027 0.004,0.044 -0.023,0.003 v 0.041 l -0.003,0.002 -0.009,0.032 -0.031,0.015 v 0.044 h 0.022 l 0.003,0.025 0.015,-0.006 0.009,0.027 h 0.013 l -0.01,0.041 v 0.031 l 0.034,0.029 0.033,0.005 v 0.013 h 0.014 l 0.01,0.011 h 0.046 l 0.003,0.017 0.011,0.04 h 0.018 l 0.006,0.037 0.012,-0.009 0.01,0.027 h 0.009 l 0.005,0.123 -0.014,0.03 h -0.022 v 0.035 l -0.016,0.012 0.016,0.132 0.012,-0.013 -0.003,0.032 h 0.022 l -0.047,0.036 -0.005,-0.021 -0.014,-0.007 h -0.049 v 0.024 h -0.034 v 0.013 H 85.73 v 0.017 l -0.026,0.005 v 0.016 l -0.043,0.012 z m 0.212,-1.036 0.007,-0.003 v -0.028 l 0.06,-0.016 v -0.003 l 0.048,-0.025 v -0.034 h 0.018 v -0.009 l 0.028,-0.004 v -0.018 h 0.02 v -0.024 h 0.011 l 0.01,-0.015 v -0.029 h 0.016 v -0.027 h 0.024 l 0.007,-0.024 h 0.015 v -0.012 l 0.06,-0.012 -0.007,0.034 -0.015,0.022 v 0.04 l -0.016,0.018 0.009,0.013 -0.033,0.024 0.014,0.023 0.01,0.026 0.038,-0.026 -0.007,0.059 -0.088,0.003 -0.005,0.016 -0.016,-0.058 h -0.037 v 0.058 l -0.016,0.004 -0.018,0.024 -0.004,0.019 -0.009,0.018 -0.093,0.012 z m -0.407,-0.169 0.012,-0.01 v -0.02 l 0.032,-0.004 v -0.046 l 0.01,-0.006 -0.006,-0.037 0.016,-0.004 v -0.022 h 0.016 v -0.042 h 0.009 v -0.026 h 0.025 v -0.022 h 0.044 v 0.007 h 0.018 v 0.041 l 0.01,-0.005 0.009,0.038 0.013,0.006 -0.013,0.007 0.013,0.106 h -0.022 v 0.021 l -0.01,0.008 -0.012,0.01 v 0.013 l -0.069,0.012 v 0.012 l -0.111,0.01 z m 0.842,-0.204 -0.006,-0.053 0.009,-0.016 0.002,-0.028 0.064,-0.018 0.015,-0.032 0.016,-0.004 v -0.024 l 0.031,-0.016 -0.009,-0.043 h -0.015 v -0.012 l -0.014,0.002 -0.006,-0.014 h -0.018 v -0.022 h -0.023 l -0.017,0.031 -0.053,-0.009 0.016,-0.022 0.021,-0.091 0.009,0.015 0.007,-0.015 0.031,-0.016 -0.006,-0.005 0.022,-0.017 -0.007,-0.045 h -0.015 l -0.008,-0.046 0.014,-0.008 V 445.6 l 0.027,-0.02 0.013,0.02 0.022,0.026 0.043,-0.003 -0.016,0.025 v 0.045 h -0.009 l 0.003,0.024 -0.021,0.01 0.021,0.14 0.022,-0.021 v -0.008 l 0.022,-0.003 -0.006,-0.015 h 0.047 v 0.015 h 0.018 l 0.009,0.063 h -0.024 l -0.01,0.015 0.01,0.156 -0.017,0.009 0.007,0.016 h -0.018 v 0.025 l -0.016,0.012 0.003,0.016 h -0.083 v -0.013 h -0.078 v 0.021 z m -0.522,-0.162 v -0.047 l -0.006,-0.04 -0.017,-0.016 h 0.013 l -0.003,-0.075 -0.018,0.013 v -0.103 l 0.018,0.01 h 0.023 l 0.009,0.011 0.061,-0.005 0.003,0.022 0.014,0.005 0.03,0.014 0.022,0.046 h 0.035 l 0.002,0.015 h 0.016 v 0.01 l 0.018,-0.007 v 0.09 l -0.018,-0.015 -0.029,0.015 -0.019,0.007 v 0.01 l -0.027,-0.01 h -0.047 v 0.012 h -0.021 l 0.003,0.013 -0.062,0.036 z m 0.177,-0.209 -0.004,-0.059 h -0.019 l -0.005,-0.127 h -0.031 l -0.006,-0.013 -0.062,0.003 -0.01,-0.09 h 0.01 l -0.003,-0.015 0.024,-0.015 0.047,-0.009 v -0.013 l 0.012,-0.017 -0.003,-0.015 0.022,-0.012 -0.009,-0.034 h 0.059 l 0.012,0.034 h 0.013 l 0.009,0.044 -0.031,0.002 0.009,0.137 h 0.013 l 0.009,0.035 0.015,0.003 0.01,0.046 h 0.01 v 0.019 h 0.015 l 0.006,0.047 h 0.016 v 0.049 h -0.026 v 0.007 l -0.055,0.006 z m 0.259,-0.196 h -0.014 l -0.025,-0.025 -0.011,-0.009 h -0.013 l 0.056,-0.071 0.007,0.015 0.005,-0.015 0.044,0.033 0.029,-0.012 0.011,0.081 -0.04,0.013 -0.044,0.013 z m 0.294,-0.072 -0.011,-0.065 0.011,-0.003 -0.005,-0.071 h 0.018 l -0.007,-0.038 h -0.014 l -0.003,-0.018 -0.057,0.006 v -0.016 h -0.024 l -0.009,-0.015 -0.007,0.015 -0.029,0.005 -0.049,-0.099 h -0.044 l 0.004,0.016 -0.047,0.005 -0.006,-0.039 -0.015,0.007 -0.007,-0.046 h -0.047 l -0.009,-0.017 h -0.037 l 0.007,0.063 -0.019,0.011 0.002,0.033 h -0.015 v 0.014 h -0.063 l -0.006,-0.014 -0.018,-0.017 -0.059,0.005 -0.011,-0.061 h -0.014 v -0.017 H 85.9 l -0.009,-0.017 h -0.078 l -0.006,-0.009 H 85.75 l -0.015,-0.026 -0.005,-0.036 -0.017,0.002 -0.006,-0.068 -0.021,0.007 -0.007,-0.05 h -0.015 l 0.006,-0.032 h -0.022 v -0.031 h 0.065 l 0.008,0.044 h 0.009 l 0.008,0.035 h 0.012 l 0.01,0.04 h 0.013 v 0.022 h 0.019 v 0.031 h 0.015 l 0.004,0.012 0.049,-0.01 v -0.002 l 0.01,-0.02 -0.003,-0.033 0.036,0.013 0.024,0.031 0.023,-0.013 0.034,-0.031 0.013,0.013 v 0.009 l 0.024,0.031 0.01,0.015 0.037,-0.003 v -0.012 h 0.013 v -0.02 h 0.052 l -0.003,-0.02 0.016,0.009 0.016,-0.022 v -0.021 l 0.015,-0.004 0.007,-0.015 -0.014,-0.032 v -0.022 l -0.015,-0.012 v -0.013 h -0.022 l -0.003,-0.09 0.016,-0.003 -0.01,-0.084 0.026,-0.01 v -0.021 h 0.04 l -0.007,-0.025 h 0.048 v -0.011 h 0.028 v -0.02 H 86.3 l -0.002,-0.024 h 0.043 v 0.024 l 0.014,0.041 0.047,-0.047 h -0.014 l 0.047,-0.065 v 0.024 h 0.012 l -0.003,0.02 h 0.018 l 0.006,0.012 h 0.014 l 0.003,0.083 h -0.003 l -0.006,0.048 H 86.46 l 0.002,0.012 -0.027,0.021 v 0.022 l -0.018,-0.015 0.021,0.03 v 0.029 h 0.013 l 0.006,0.028 h 0.028 l 0.056,0.065 0.016,-0.019 v -0.025 l 0.017,-0.012 v -0.009 l 0.01,-0.003 0.035,-0.035 v 0.016 h 0.034 v 0.014 l 0.013,0.017 0.015,-0.009 0.003,0.024 0.019,-0.003 0.009,0.119 -0.011,0.007 -0.02,0.006 v 0.02 h -0.015 v 0.048 h 0.018 l -0.01,0.031 0.007,0.075 -0.054,0.011 -0.008,0.016 0.034,0.031 0.01,0.063 -0.023,0.05 h -0.027 l 0.006,0.025 h -0.023 v 0.022 l -0.012,0.005 0.003,0.019 -0.013,0.003 v 0.009 h -0.033 l -0.003,0.013 h -0.015 l -0.014,0.025 v 0.032 z m -0.139,-0.199 h 0.002 l 0.005,0.01 z m -1.752,-0.417 -0.019,-0.021 -0.003,-0.038 h -0.013 l -0.005,-0.019 -0.04,0.016 0.012,0.003 -0.025,0.038 v -0.038 H 84.5 v -0.031 h -0.015 v -0.025 h -0.027 l -0.021,-0.033 -0.027,-0.015 v -0.035 h -0.019 v -0.056 h -0.009 l -0.009,-0.016 -0.009,0.006 -0.004,-0.027 h -0.012 v -0.025 h -0.013 l -0.002,-0.019 h -0.079 v -0.015 l -0.009,-0.045 0.031,-0.002 -0.043,-0.069 v -0.007 h -0.059 v -0.023 l -0.022,0.03 h -0.047 l -0.003,-0.007 -0.017,-0.023 -0.008,0.009 -0.009,-0.028 h -0.026 v -0.016 l -0.017,-0.022 h -0.087 v -0.059 h -0.017 v -0.035 l -0.015,-0.002 -0.016,-0.032 h -0.014 v -0.012 H 83.86 l -0.01,-0.016 -0.007,-0.018 -0.031,-0.007 -0.021,-0.056 -0.025,-0.006 v -0.028 H 83.75 v -0.019 l -0.015,-0.003 v -0.035 h -0.023 l -0.002,-0.008 h -0.05 l -10e-4,-0.016 h -0.08 v -0.018 l -0.069,-0.007 -0.009,-0.006 -0.081,-0.003 -0.005,-0.018 -0.016,-0.017 h -0.023 v -0.031 l -0.018,0.005 v -0.035 l -0.031,-0.019 0.009,-0.037 0.003,-0.023 -0.012,-0.011 -0.001,-0.032 h -0.014 v -0.047 h -0.019 v -0.024 h -0.084 v 0.009 h -0.035 v 0.015 h -0.102 l 0.004,0.019 h -0.032 v 0.01 l -0.015,0.006 -0.013,0.012 -0.018,0.012 -0.005,0.02 -0.042,-0.013 -0.007,-0.019 -0.009,-0.028 h -0.016 l -0.002,-0.019 -0.013,-0.018 h -0.016 v -0.009 H 82.873 L 82.87,443.6 h -0.016 v -0.095 H 82.84 v -0.04 l 0.014,-0.016 -0.003,-0.052 0.012,-0.01 0.035,-0.037 -0.003,-0.057 -0.016,-0.012 v -0.08 h 0.019 l 0.06,-0.044 -0.023,-0.032 h 0.041 v -0.017 l 0.006,-0.029 h 0.062 l 0.015,-0.056 h 0.017 l -0.007,-0.097 H 83.05 v -0.028 l 0.034,-0.022 v -0.08 l 0.013,-0.003 -0.006,-0.059 h 0.018 l -0.006,-0.082 0.038,0.015 0.043,0.011 -0.007,-0.026 h 0.014 l 0.034,-0.012 v -0.019 h 0.077 v 0.019 l 0.013,-0.007 0.003,0.019 h 0.04 v -0.012 h 0.041 l 0.009,0.012 0.028,-0.077 h 0.01 l 0.009,-0.069 0.009,0.025 h 0.028 l 0.018,0.025 h 0.016 l 0.01,0.019 0.003,-0.019 h 0.031 v -0.009 h 0.059 l 0.003,0.009 0.006,0.019 0.034,0.006 0.007,0.04 h 0.031 v -0.002 h 0.016 l 0.021,-0.032 v -0.006 l 0.044,0.006 0.028,-0.006 v -0.05 l 0.05,0.003 0.007,0.013 h 0.067 v -0.013 h 0.044 v -0.016 l 0.034,-0.012 0.01,-0.006 0.003,-0.136 0.034,0.015 0.013,0.009 0.011,0.012 0.023,0.008 0.009,0.002 0.037,0.012 0.003,0.022 H 84.2 v 0.009 h 0.039 l 0.006,0.016 h 0.021 l 0.01,0.019 0.041,0.003 0.018,0.034 h 0.013 l 0.012,0.025 -0.012,0.037 h 0.016 v 0.032 l -0.016,0.002 v 0.022 l 0.043,-0.01 0.019,0.112 h 0.027 v 0.073 H 84.41 l 0.006,0.067 h -0.032 l 0.02,0.038 h 0.012 v 0.019 h 0.017 v 0.028 h 0.008 l 0.013,0.018 0.031,0.016 0.015,0.034 0.003,-0.015 0.041,0.015 0.003,0.026 h 0.018 l 0.007,0.024 0.018,0.02 0.037,0.003 0.009,0.014 0.005,0.014 h 0.018 l 0.003,0.045 0.008,0.007 -0.008,0.022 -0.021,0.009 v 0.092 l 0.021,0.007 v 0.066 h 0.008 l 0.026,0.078 0.013,-0.016 v 0.026 l 0.018,0.003 v 0.012 h 0.016 v 0.015 l 0.071,0.007 v -0.022 h 0.121 l 0.01,0.022 h 0.015 l -0.004,0.024 -0.036,0.032 -0.015,0.015 0.009,0.019 -0.035,0.012 v 0.01 h -0.027 v 0.018 l -0.016,0.002 v 0.017 h -0.022 v 0.009 H 84.79 l -0.013,0.025 -0.022,0.012 v 0.01 l -0.005,0.003 v 0.081 h 0.027 l 0.003,0.05 -0.03,0.018 v 0.018 h -0.016 v 0.029 l -0.013,0.002 v 0.035 l -0.012,0.003 -0.022,0.053 h -0.025 l -0.021,0.026 0.021,0.011 v 0.048 l -0.013,0.002 0.035,0.028 0.003,0.013 0.04,0.007 -0.018,0.039 -0.01,0.012 -0.012,0.01 v 0.02 l -0.025,0.011 0.047,0.007 -0.005,0.061 h 0.046 l -0.007,-0.015 h 0.031 v -0.018 h 0.027 v 0.018 h 0.051 l 0.006,0.015 0.056,0.032 h -0.025 l 0.006,0.022 -0.059,0.003 v 0.021 l -0.016,0.004 0.016,0.066 h 0.059 l 0.01,-0.013 0.009,0.013 0.056,10e-4 v 0.014 l 0.063,0.002 v 0.013 l 0.011,0.062 H 84.96 l -0.004,0.023 h -0.011 v 0.014 h -0.031 v 0.02 h -0.013 v 0.003 h -0.028 v 0.024 h -0.046 l -0.015,-0.027 -0.032,0.003 0.012,0.024 0.004,0.031 -0.075,-0.011 v 0.046 l -0.012,0.002 0.018,0.045 h 0.016 l -0.034,0.036 v 0.009 l -0.013,-0.002 v 0.018 h -0.034 v 0.012 l -0.026,0.016 v 0.062 l -0.024,0.003 z m -3.849,-0.068 v -0.08 h 0.01 l 0.006,-0.048 0.011,-0.002 0.002,-0.032 0.006,-0.003 v -0.021 l 0.028,-0.025 v -0.012 h 0.015 v -0.025 l 0.016,-0.007 v -0.027 l 0.024,-0.026 v -0.006 h 0.032 v -0.034 l 0.012,-0.007 v -0.016 l 0.01,-10e-4 0.009,-0.01 v -0.028 h 0.062 v -0.028 h 0.013 v -0.025 h 0.009 l 0.013,-0.025 v -0.025 h 0.012 l 0.013,-0.043 h 0.012 l 0.004,-0.032 h 0.008 v -0.025 l 0.035,-0.006 v -0.047 l 0.013,-0.014 0.008,-0.089 h 0.039 v -0.017 l 0.021,0.008 v -0.02 l 0.015,-0.005 v -0.012 h 0.01 l 0.006,-0.022 h 0.04 l 0.007,-0.031 0.008,-0.018 0.028,-0.016 -0.015,-0.05 0.013,-0.008 v -0.042 l 0.012,-0.012 -0.001,-0.032 h 0.009 v -0.061 h 0.014 v -0.047 l 0.013,-0.006 0.021,-0.085 0.014,0.016 0.015,-0.016 0.011,-0.022 0.019,-0.021 v -0.002 h 0.015 v -0.056 l 0.01,-0.003 0.009,-0.026 0.003,-0.021 h 0.013 v -0.01 h 0.009 l 0.003,-0.031 h 0.012 l 0.01,-0.007 0.013,-0.009 v -0.018 h 0.008 l 0.004,-0.054 h 0.009 l 0.003,-0.062 0.01,-0.002 0.018,-0.022 -0.006,-0.022 0.012,-0.007 -0.002,-0.027 h 0.012 v -0.022 l 0.016,-0.01 0.008,-0.037 0.01,-0.009 -0.003,-0.106 h 0.02 l -0.004,-0.027 0.012,-0.004 0.025,-0.011 0.015,-0.046 0.026,-0.024 v -0.028 l 0.012,-0.009 v -0.019 l 0.019,-0.012 v -0.018 h 0.016 v -0.017 l 0.024,-0.006 v -0.024 l 0.025,-0.007 -0.003,-0.009 h 0.009 l 0.003,-0.025 h 0.025 v -0.022 h 0.01 v -0.046 l 0.011,-0.015 v -0.01 l 0.014,-0.007 0.012,-0.006 v -0.025 h 0.015 v -0.009 h 0.023 v -0.013 l 0.009,-0.003 0.012,-0.013 -0.004,-0.015 h 0.013 v -0.015 h 0.022 v -0.019 h 0.012 l 0.003,-0.025 h 0.023 l 0.014,-0.009 0.01,-0.035 h 0.034 v -0.012 h 0.013 v -0.009 h 0.018 v -0.025 h 0.016 l 0.012,-0.04 v -0.005 -0.021 l 0.018,-0.002 0.017,-0.013 v -0.009 h 0.007 l 0.005,-0.018 h 0.009 l 0.016,-0.032 0.014,-0.003 0.011,0.028 0.032,0.007 v -0.019 l 0.032,-0.01 0.004,-0.017 h 0.047 l 0.008,0.046 0.021,-0.029 0.023,-0.003 0.016,-0.05 0.019,0.036 h 0.015 v 0.151 l 0.007,0.155 h -0.016 l 0.016,0.028 0.003,0.053 h 0.013 l -0.013,0.034 v 0.012 l -0.013,0.007 0.013,0.027 v 0.032 l 0.017,0.013 v 0.022 h 0.008 l 0.01,0.027 -0.01,0.007 v 0.007 h 0.025 0.043 v -0.054 h 0.012 v -0.018 h 0.013 v -0.082 h 0.019 v -0.002 l 0.047,-0.015 v -0.017 h 0.024 v -0.006 l 0.029,-0.006 0.005,-0.019 0.009,0.065 h 0.019 v 0.012 l 0.02,0.007 -0.091,0.047 v 0.016 l -0.015,-0.004 0.002,0.029 -0.021,0.006 0.006,0.034 -0.019,0.007 v 0.078 h -0.008 v 0.032 l -0.063,0.013 -0.009,-0.049 -0.004,0.03 -0.018,0.019 -0.029,-0.019 h -0.018 v -0.055 h -0.003 l -0.01,0.037 h -0.027 l -0.007,0.051 -0.042,0.011 v 0.019 h -0.104 l 0.006,0.028 h 0.013 l -0.033,0.053 v 0.015 l -0.008,-0.008 -0.013,0.014 v 0.064 l -0.011,0.003 v 0.09 h -0.01 v 0.042 h -0.09 v 0.016 h -0.021 l 0.005,0.011 -0.031,0.011 -0.013,0.025 -0.005,0.008 v 0.057 l 0.018,0.009 0.007,0.007 -0.007,0.034 -0.013,0.022 0.026,0.032 0.013,0.005 0.012,0.01 v 0.044 h -0.007 l -0.018,0.023 -0.006,0.011 v 0.015 h -0.022 v 0.017 h -0.041 l -0.002,-0.017 h -0.016 v -0.015 l -0.02,0.015 v 0.034 0.032 H 81.98 v 0.015 h -0.021 l -0.003,0.009 H 81.92 v 0.015 h -0.017 l -0.003,0.022 -0.014,-0.003 -0.011,0.01 v 0.074 l -0.01,0.004 -0.006,0.027 h -0.022 v 0.035 h -0.024 l 10e-4,0.012 h -0.052 l 0.004,0.018 -0.025,0.005 0.009,0.024 -0.009,0.002 v 0.035 h -0.013 l -0.024,0.034 v 0.016 h -0.016 l -0.008,0.006 v 0.017 l -0.028,-0.017 -0.018,-0.03 -0.008,0.024 h -0.032 v 0.023 h -0.012 v 0.029 l -0.009,0.013 v 0.026 h -0.019 v 0.015 h -0.007 v 0.015 h -0.029 l 0.001,0.02 h -0.006 l -0.006,0.046 h -0.003 v 0.015 l -0.022,-0.006 v 0.026 l -0.022,0.018 v 0.002 h -0.009 l -0.006,0.023 h -0.019 l 0.006,0.012 h -0.015 l -0.002,0.018 -0.015,0.006 -0.008,0.02 -0.016,0.005 v 0.01 l -0.038,0.019 v 0.003 H 81.33 l -0.012,0.016 v 0.019 h -0.013 v 0.023 h -0.013 v 0.007 l -0.021,0.026 v 0.011 H 81.24 v 0.013 h -0.009 l 0.009,0.034 v 0.047 h -0.019 v 0.019 h -0.015 v 0.025 h -0.007 v 0.037 h -0.014 l -0.018,0.021 -0.008,0.003 0.006,0.022 -0.016,0.01 -0.003,0.015 -0.008,0.006 h -0.06 v 0.015 h -0.05 v 0.014 h -0.111 v 0.012 h -0.016 v 0.021 l -0.013,0.007 -0.007,0.015 -0.014,0.013 -0.01,0.012 -0.016,0.006 v 0.003 l -0.062,0.01 z m 6.173,-1.067 -0.027,-0.003 0.006,-0.047 H 86.89 l -0.025,-0.083 0.017,-0.041 -0.021,-0.004 v -0.065 h -0.025 v -0.049 l 0.025,-0.019 v -0.028 l 0.075,0.047 h 0.037 l 0.01,0.025 h 0.025 l 0.009,0.024 h 0.008 l 0.011,0.193 h -0.022 l -0.034,0.038 -0.044,0.033 z m 0.227,-0.096 v -0.037 h -0.032 l -0.029,-0.056 v -0.056 l -0.077,-0.047 v -0.034 h -0.024 v -0.075 H 86.88 l -0.006,-0.155 h 0.022 l 0.003,-0.029 0.027,-0.012 -0.006,-0.229 0.026,-0.019 0.046,-0.004 -0.003,0.004 0.028,0.014 -0.025,0.031 -0.003,0.154 0.035,0.024 -0.023,0.025 0.023,0.012 0.001,0.041 0.07,0.009 v -0.021 h 0.095 v -0.029 h 0.066 l 0.035,-0.059 -0.031,0.059 -0.012,0.029 0.012,-0.029 -0.012,0.029 0.012,-0.029 -0.012,0.109 h -0.079 v 0.018 l -0.049,0.007 v 0.077 h 0.031 l 0.012,0.035 h 0.052 l 0.019,0.025 0.035,0.022 v 0.196 z m -0.909,-0.012 -0.017,-0.019 v -0.013 h -0.013 l -0.01,-0.022 h -0.019 l -0.011,-0.027 -0.007,-0.032 -0.031,-0.002 -0.019,-0.044 h -0.043 v -0.015 h -0.028 l -0.004,-0.01 h -0.13 v 0.01 h -0.09 l -0.009,-0.01 -0.05,-0.016 v 0.026 H 85.73 v 0.015 h -0.119 v 0.009 h -0.044 l -0.013,-0.009 -0.021,0.009 -0.032,0.006 v 0.029 h -0.058 v 0.023 l -0.06,-0.012 v -0.055 h -0.022 v -0.015 h -0.005 l -0.005,-0.029 -0.017,0.003 -0.018,-0.028 -0.038,0.022 -0.013,0.003 -0.003,-0.025 h -0.04 l -0.007,-0.05 h -0.016 v -0.015 h -0.014 v -0.05 h -0.016 l 0.018,-0.047 h -0.002 v -0.053 l 0.014,-0.005 -0.012,-0.044 -0.006,0.025 -0.043,-0.022 h -0.013 v -0.021 H 85.107 L 85.1,443.091 h -0.018 l -0.006,-0.012 h -0.019 v -0.041 h -0.013 l -0.002,-0.037 0.011,-0.018 -0.009,-0.098 h -0.011 v -0.018 l -0.023,0.009 -0.018,-0.074 0.015,-0.027 -0.031,-0.023 h -0.025 v -0.018 l -0.056,-0.022 0.01,-0.034 -0.016,-0.074 0.006,-0.017 v -0.056 l 0.019,-0.006 0.046,-0.022 0.01,0.015 0.037,0.007 0.003,0.016 0.003,-0.016 0.04,-0.019 -0.011,-0.071 0.015,-0.013 v -0.043 l 0.019,-0.015 -0.01,-0.076 h -0.022 l -0.002,-0.065 h -0.02 l -0.002,-0.09 h -0.013 l -0.006,-0.016 h -0.019 l -0.006,-0.071 0.022,-0.004 v -0.028 h 0.024 l -0.002,-0.018 0.08,-0.012 v 0.018 l 0.013,-0.003 0.007,0.02 h 0.115 l -0.017,0.033 0.004,0.026 -0.014,0.012 0.007,0.11 h 0.016 l 0.019,0.22 h 0.015 l 0.005,0.068 -0.014,0.003 0.006,0.084 -0.012,0.006 v 0.013 l -0.019,0.01 0.034,0.039 0.013,0.022 0.007,0.013 0.051,0.012 0.006,0.022 0.101,-0.009 v -0.07 l 0.012,-0.002 v -0.044 l -0.018,-0.006 -0.01,-0.034 -0.01,0.003 -0.021,-0.016 0.013,-0.065 0.008,-0.013 0.026,-0.012 -0.003,-0.022 0.031,-0.002 v -0.032 l 0.046,-0.009 v -0.004 h 0.025 v -0.024 h 0.012 l -0.021,-0.033 -0.009,-0.072 -0.017,0.011 V 442.2 h 0.035 v -0.023 l 0.069,-0.013 0.034,0.059 h 0.016 l 0.003,0.023 0.071,0.011 0.007,0.007 0.058,-0.003 0.06,0.003 v 0.054 h -0.049 l -0.014,0.046 -0.014,0.015 v 0.009 h -0.016 l -0.017,0.02 v 0.014 l -0.029,0.013 -0.017,0.021 0.012,0.004 0.014,0.046 h 0.008 l 0.004,0.081 -0.007,0.007 0.007,0.025 -0.029,0.021 v 0.012 l -0.034,0.015 0.007,0.011 -0.022,0.012 0.006,0.044 h -0.009 l -0.022,0.018 -0.015,0.05 -0.044,0.016 v 0.021 h -0.013 l -0.025,0.022 v 0.015 l -0.018,0.009 0.018,0.027 0.003,-0.014 0.043,-0.013 -0.008,-0.009 0.059,0.047 0.047,-0.011 0.003,0.03 0.018,-0.006 0.009,0.018 0.022,-0.018 0.012,0.018 h 0.026 l 0.007,0.003 0.014,0.026 0.014,-0.01 0.002,0.028 0.019,-0.009 0.003,0.031 0.018,-0.003 0.014,0.027 h 0.024 v 0.044 h 0.022 l -0.013,0.034 -0.015,0.014 h -0.122 l -0.009,-0.026 h -0.016 l -0.003,-0.02 -0.099,0.015 v 0.012 l -0.025,0.019 -0.019,-0.026 H 85.58 v -0.005 h -0.013 l -0.013,-0.039 h -0.03 v -0.039 l -0.017,0.008 -0.006,-0.037 -0.074,0.003 -0.071,0.026 v 0.061 l -0.02,0.002 -0.045,0.032 v 0.01 l -0.013,0.004 -0.016,0.018 v 0.034 l -0.021,0.01 0.009,0.012 -0.019,0.015 0.007,0.042 -0.007,0.011 v 0.018 l 0.007,0.007 v 0.022 h 0.018 l 0.006,0.009 0.016,0.019 0.007,-0.003 0.006,0.018 h 0.07 v -0.015 h 0.063 l 0.007,-0.016 0.012,0.016 h 0.022 l 0.016,0.015 0.093,0.009 v -0.024 h 0.062 l 0.003,0.024 h 0.115 0.116 v -0.018 h 0.021 v -0.022 h 0.071 l 0.013,-0.005 0.009,0.005 0.084,0.01 v 0.012 h 0.076 l 0.002,0.018 h 0.016 v 0.029 h 0.015 v 0.034 h 0.007 v 0.006 l 0.018,0.016 v 0.01 h 0.015 l 0.01,0.015 0.01,0.015 h 0.017 v 0.029 h 0.01 v 0.034 h 0.019 v 0.027 h 0.012 l 0.003,0.035 -0.011,0.012 v 0.019 z m -4.97,-0.335 v -0.021 l -0.007,-0.012 0.007,-0.038 v -0.03 l 0.008,-0.007 v -0.005 h 0.013 l -0.007,-0.044 h 0.031 v -0.018 h 0.013 v -0.014 h 0.023 v 0.014 h 0.011 l -0.009,0.033 v 0.012 l -0.015,0.007 -0.014,0.068 -0.008,0.011 v 0.029 h -0.012 l 0.002,0.022 z m 6.8,-0.201 v -0.02 l -0.056,-0.002 -0.012,-0.027 h -0.022 v -0.02 l -0.019,-0.006 -0.006,-0.015 h -0.021 l -0.013,-0.019 h -0.072 l -0.009,-0.012 h -0.027 l -0.007,-0.05 h -0.016 l -0.004,-0.053 -0.065,-0.004 0.014,-0.024 0.021,-0.022 h 0.128 v -0.015 h 0.059 l -0.003,-0.006 h 0.015 v -0.025 l 0.023,-0.018 h -0.023 v -0.047 h 0.025 v -0.016 h 0.012 l 0.087,-0.034 0.006,0.009 0.007,-0.009 h 0.118 v 0.009 l 0.171,0.003 0.013,-0.047 h -0.019 v -0.022 h -0.012 l -0.003,-0.002 h -0.082 v 0.002 H 88.28 l -0.019,0.022 -0.003,-0.022 h -0.034 v -0.017 l -0.031,-0.017 -0.006,-0.012 h -0.021 l -0.014,-0.034 h -0.046 v 0.015 H 88 l -0.019,-0.015 0.088,-0.038 V 442.5 h 0.015 l 0.015,-0.044 h 0.016 v -0.012 h 0.037 v -0.036 h 0.014 v -0.029 l 0.015,-0.015 -0.015,-0.025 H 88.15 l -0.004,-0.053 0.02,-0.015 v -0.014 l 0.08,0.004 v 0.012 l 0.022,0.007 v 0.018 h 0.012 l 0.01,0.064 h 0.015 v 0.017 h 0.016 l 0.006,0.029 h 0.009 l 0.019,0.027 v -0.047 l 0.043,-0.009 v -0.047 l 0.072,0.007 v -0.021 l 0.025,-0.009 h 0.077 v -0.023 h 0.019 l -0.006,-0.022 h 0.016 v -0.018 h 0.04 v -0.019 h 0.034 l -0.003,-0.016 h 0.122 V 442.2 h 0.104 v -0.021 h 0.047 v -0.015 h 0.052 l -0.003,-0.018 h 0.039 l -0.006,-0.016 h 0.069 l -0.004,-0.013 0.069,-0.007 v -0.005 l 0.035,-0.013 v -0.005 l 0.036,-0.009 -0.003,-0.016 h 0.02 l -0.004,-0.016 h 0.043 l -0.009,-0.016 h 0.024 v -0.011 l 0.031,-0.005 v -0.046 h 0.016 v -0.012 h 0.013 v -0.022 l 0.018,0.004 v -0.063 h 0.013 v -0.057 h 0.012 l 0.022,-0.021 0.002,-0.015 0.018,-0.006 v -0.078 l -0.02,-0.016 0.033,-0.019 v -0.011 l 0.018,-0.008 -0.02,-0.024 0.034,-0.022 v -0.015 h 0.019 l 0.007,-0.038 -0.022,0.018 h 0.008 l -0.031,0.02 h -0.068 l -0.006,-0.02 h -0.06 l -0.024,-0.043 h -0.013 v -0.009 l -0.037,-0.019 v -0.011 h -0.017 v -0.054 h -0.017 v -0.022 h -0.011 l -0.019,-0.062 0.055,0.022 0.003,-0.022 h 0.103 l 0.009,0.022 h 0.016 l 0.006,0.011 0.025,-0.011 h 0.031 v 0.011 l 0.024,0.016 0.031,0.026 0.007,0.018 0.031,0.009 0.016,-0.018 0.046,0.009 0.011,0.016 h 0.089 v -0.031 l 0.04,-0.007 v -0.022 l 0.016,0.009 v -0.011 l 0.012,-0.014 v -0.005 h 0.025 l -0.006,-0.026 0.022,-0.002 0.01,-0.024 0.018,-0.008 v -0.015 l 0.019,-0.01 0.018,-0.009 0.013,-0.012 -0.003,-0.015 0.022,0.003 v -0.028 l 0.036,0.006 v -0.016 l 0.035,0.016 0.013,-0.006 0.015,0.025 v -0.019 h 0.069 l 0.003,0.019 h 0.127 v -0.019 l 0.041,-0.009 0.037,0.028 0.038,0.003 0.003,0.012 0.014,0.019 h 0.047 v 0.015 l 0.048,0.02 -0.02,0.086 -0.046,0.016 v 0.015 l -0.046,0.016 h 0.064 l 0.007,0.012 0.064,0.003 0.004,0.025 h 0.043 l 0.009,0.047 h 0.051 v 0.066 l 0.118,0.027 v 0.012 h 0.09 v -0.012 l 0.022,-0.012 v -0.015 l 0.189,-0.017 v -0.017 h 0.036 v -0.029 l 0.018,-0.003 0.016,-0.044 0.025,-0.003 -0.014,-0.028 0.022,-0.012 0.014,-0.016 v -0.06 h 0.045 v -0.017 l 0.026,-0.004 v -0.031 l 0.012,-0.005 v -0.033 l 0.016,-0.002 v -0.007 h 0.049 v -0.03 l 0.016,-0.009 v -0.023 l 0.019,-0.009 v -0.013 h 0.018 v -0.022 h 0.028 v -0.011 h 0.072 l 0.015,0.008 0.221,-0.008 v -0.016 h 0.087 v -0.01 l 0.034,-0.014 v -0.022 l 0.069,0.003 v 0.009 l 0.025,-0.007 0.011,0.045 -0.021,0.012 -0.015,0.008 v 0.033 l -0.016,0.014 h -0.053 v 0.01 h -0.029 l -0.005,0.086 h -0.084 l -0.012,0.022 v 0.01 l -0.015,-0.003 0.015,0.025 0.012,0.067 -0.077,-0.005 -0.007,-0.009 h -0.061 v 0.074 l -0.033,0.007 -0.013,0.012 v 0.094 l -0.055,0.027 v 0.012 h -0.031 v 0.019 l -0.016,0.003 v 0.027 l -0.036,0.017 v 0.019 l -0.028,0.006 v 0.004 h -0.019 l -0.007,0.058 h -0.009 l -0.003,0.029 -0.009,0.002 -0.009,0.068 0.03,0.022 h 0.131 v 0.007 l 0.028,0.009 v 0.068 l -0.015,0.012 -0.013,0.016 v 0.032 h -0.034 v 0.016 h -0.115 v 0.012 l -0.036,0.015 v 0.005 l -0.051,0.023 -0.066,0.013 v 0.018 H 91 l 0.008,0.082 h 0.014 v 0.052 h -0.014 v 0.022 h -0.014 v 0.024 l -0.023,0.007 v 0.011 h -0.018 l -0.019,0.017 0.003,0.009 -0.068,0.003 -0.032,0.044 -0.015,0.009 -0.003,0.016 h -0.03 v 0.019 h -0.014 l -0.023,0.027 H 90.704 L 90.698,442.5 h -0.047 l -0.013,0.006 v 0.019 l -0.034,0.006 v 0.01 h -0.012 v 0.015 h -0.041 l 0.007,0.019 h -0.121 l 0.002,0.012 -0.068,0.007 v 0.01 l -0.051,0.015 v 0.002 h -0.063 v 0.022 h -0.029 v 0.022 l -0.052,-0.013 v 0.015 h -0.042 v 0.02 l -0.087,0.025 v 0.009 l -0.084,-0.009 -0.016,0.022 h -0.018 v 0.024 l -0.04,-0.024 -0.034,0.024 -0.125,-0.006 v 0.023 h -0.037 v 0.018 h -0.058 v 0.009 l -0.03,0.003 v 0.016 h -0.062 v 0.018 h -0.018 v 0.014 h -0.037 v 0.023 h -0.051 v 0.009 h -0.065 v 0.027 l -0.015,-0.004 -0.017,0.004 h -0.037 l -0.037,-0.004 -0.006,-0.023 h -0.024 l -0.004,-0.018 h -0.019 l -0.003,-0.014 h -0.028 l -0.009,-0.085 h -0.047 v -0.016 h -0.034 v -0.018 h -0.098 v -0.022 h -0.017 v -0.069 l -0.038,-0.01 -0.009,-0.014 -0.047,-0.015 v -0.057 h -0.03 l -0.007,-0.029 -0.009,-0.012 -0.022,-0.018 -0.016,-0.009 v -0.019 h -0.018 l -0.006,-0.016 -0.063,-0.009 -0.015,0.009 h -0.034 v 0.016 l -0.012,-0.004 -0.031,0.028 v 0.019 0.028 l -0.026,0.003 v 0.022 l -0.015,0.009 0.004,0.066 h -0.036 l 0.013,-0.075 -0.035,0.038 -0.005,0.01 -0.01,0.027 -0.006,0.002 v 0.032 l -0.034,0.002 0.012,0.023 -0.018,0.009 v 0.035 l 0.018,0.011 v 0.041 l -0.018,0.007 v 0.056 h 0.018 v 0.012 h 0.022 v 0.065 h -0.015 v 0.016 l -0.019,0.012 v 0.016 l -0.012,0.003 0.012,0.057 h -0.165 v 0.014 H 88.28 v 0.02 h -0.031 v 0.015 l -0.056,0.009 0.006,0.003 h -0.047 v 0.022 z m -0.921,-0.159 v -0.012 l -0.034,-0.006 v -0.051 h 0.025 v -0.009 h 0.047 v 0.009 l 0.08,0.038 -0.066,0.019 v 0.012 z m -0.668,-0.093 0.043,-0.068 0.003,0.009 0.025,0.003 0.008,0.013 0.066,0.003 v 0.032 h -0.044 v 0.014 z m 5.39,-0.127 v -0.013 h -0.009 l -0.008,-0.009 -0.002,0.009 h -0.021 v 0.013 h -0.047 v -0.067 h 0.016 v -0.034 l 0.016,-0.012 h -0.016 v -0.046 h -0.031 l -0.009,-0.019 h -0.037 v -0.015 h -0.013 v -0.038 h -0.015 l -0.022,-0.059 h -0.01 l -0.009,-0.022 -0.037,-0.012 -0.013,0.012 -0.034,-0.014 -0.018,-0.02 -0.022,0.02 h -0.016 l -0.016,0.048 -0.021,-0.048 h -0.006 l -0.013,-0.02 h -0.053 l -0.006,-0.009 h -0.056 v 0.009 h -0.03 l 0.002,-0.009 -0.102,-0.015 v -0.01 l -0.017,-0.01 0.017,-0.012 v -0.023 l 0.059,0.005 -0.007,-0.026 h 0.019 l -0.004,-0.008 0.033,-0.007 0.005,-0.027 0.072,0.018 v -0.018 h 0.015 v -0.023 l 0.097,0.004 0.012,0.019 h 0.056 l 0.003,0.018 0.011,0.016 0.045,0.008 v 0.026 l 0.041,-0.005 0.007,0.02 h 0.033 v 0.015 l 0.008,0.02 h 0.015 l 0.004,0.015 0.013,0.056 0.031,-0.013 v 0.022 h 0.06 v 0.012 l 0.013,0.004 0.017,0.019 -0.009,0.027 -0.021,0.025 0.053,0.044 v 0.012 l 0.007,0.017 h 0.017 l 0.007,0.099 -0.016,0.009 v 0.022 z m -8.909,-0.082 v -0.009 h -0.018 v -0.022 h -0.014 v -0.115 l 0.032,0.025 h 0.017 l 0.005,0.01 0.002,-0.01 h 0.023 v -0.025 l 0.027,0.025 0.019,0.025 h 0.007 l 0.006,0.063 h -0.013 l -0.019,0.002 v 0.022 l -0.047,-0.01 -0.003,0.032 z m 4.31,-0.111 -0.026,-0.035 h -0.05 l -0.009,0.025 -0.228,-0.006 -0.015,-0.019 h -0.012 l 0.031,-0.027 v -0.019 l 0.012,-0.004 v -0.034 l 0.035,-0.014 -0.007,-0.02 0.056,0.02 0.044,0.027 0.003,0.009 h 0.023 l 0.02,0.016 -0.009,-0.025 0.022,-0.013 0.034,-0.012 h 0.093 l 0.004,0.034 h 0.06 l -0.005,-0.009 h 0.059 l 0.003,-0.027 0.057,-0.017 v -0.012 h 0.034 v -0.015 h 0.018 v -0.013 h 0.038 l -0.007,-0.019 h 0.055 l 0.017,0.088 -0.017,0.015 -0.029,0.009 0.005,0.035 -0.036,0.005 0.003,0.016 h -0.013 l -0.006,0.018 -0.147,-0.012 v 0.025 l -0.034,0.003 0.005,0.007 z m -0.659,-0.075 v -0.01 l -0.061,-0.012 V 442.4 l 0.008,-0.021 0.01,-0.015 0.012,-0.01 v -0.01 l 0.063,-0.024 v -0.011 h 0.053 l 0.009,0.011 0.071,0.024 v 0.01 l 0.013,0.008 -0.037,0.046 0.016,0.027 -0.034,0.021 v 0.013 z m -4.383,-0.255 -0.005,-0.011 0.006,0.011 z m 0.355,-0.119 -0.006,-0.014 -0.009,0.009 -0.01,-0.068 h -0.012 l -0.009,-0.035 h -0.012 v -0.016 l -0.016,0.003 -0.009,-0.006 h -0.01 l -0.008,-0.04 0.111,-0.007 -0.003,-0.005 0.037,-0.017 -0.003,-0.012 h 0.02 l -0.008,-0.009 0.04,-0.013 -0.012,-0.034 v -0.043 h 0.026 l -0.003,-0.015 0.107,-0.013 -0.002,-0.018 h 0.09 l -0.003,-0.014 h 0.031 v -0.021 l 0.018,-0.006 -0.009,-0.016 h 0.023 v -0.006 l 0.092,-0.013 v -0.019 l 0.041,0.013 h 0.118 v 0.009 l 0.056,-0.003 -0.007,-0.006 0.035,-0.013 v -0.012 h 0.069 v -0.027 h 0.046 v -0.017 h 0.028 v -0.017 l 0.103,-0.041 -0.003,-0.019 h 0.074 l -0.002,-0.016 0.09,-0.003 v -0.018 l 0.077,-0.01 v 0.019 h 0.037 v -0.019 l 0.064,-0.003 v -0.013 l 0.062,-0.012 v -0.009 l 0.03,0.009 h 0.04 l 0.006,0.016 0.082,-0.004 v -0.021 l 0.062,-0.022 -0.006,-0.013 0.048,-0.002 v -0.014 l 0.076,-0.005 -0.01,-0.016 h 0.035 l -0.009,0.059 h 0.015 l 0.01,0.097 0.018,-0.004 -0.018,0.023 -0.037,0.015 v 0.018 l -0.156,0.008 -0.009,-0.018 -0.047,0.01 v 0.02 h -0.047 l 0.004,0.015 -0.042,0.007 0.004,0.071 -0.025,0.006 0.003,0.053 H 83.95 v 0.035 l -0.102,0.002 v 0.013 l -0.057,0.006 v 0.013 l -0.034,0.011 v 0.011 l -0.098,0.002 -0.021,0.029 v 0.018 l -0.006,0.021 -0.053,-0.006 H 83.57 v -0.033 l -0.02,0.005 -0.002,-0.036 h -0.012 l -0.002,-0.022 -0.011,0.006 -0.006,-0.028 -0.03,0.009 -0.023,0.019 -0.028,-0.013 h -0.05 v 0.021 h -0.043 l -0.004,0.013 -0.037,0.009 -0.009,-0.014 H 83.25 v 0.018 l -0.119,0.031 -0.008,0.015 v 0.019 l -0.02,0.004 0.013,0.043 h -0.019 l -0.035,0.028 -0.012,-0.013 -0.047,0.009 v 0.016 h -0.005 v 0.006 l -0.047,0.012 -0.007,-0.018 -0.009,0.018 h -0.009 v 0.014 l -0.028,-0.009 v 0.039 l -0.081,0.012 v -0.024 l -0.053,0.006 v 0.023 l -0.104,0.003 0.005,0.012 h -0.032 l -0.015,0.015 z m 5.905,-0.217 v -0.013 l -0.062,-0.012 -0.009,-0.01 v -0.043 l 0.009,-0.021 0.016,-0.004 0.012,-0.015 -0.006,-0.018 0.061,-0.01 v -0.019 h 0.066 v 0.019 l 0.075,0.015 -0.003,0.013 h 0.015 l -0.037,0.058 0.01,0.016 -0.031,0.031 v 0.013 z m -4.004,-0.47 v -0.013 h -0.084 v 0.013 l -0.046,-0.004 0.012,-0.025 0.051,-0.017 v -0.016 h 0.025 v -0.01 h 0.027 v -0.022 h 0.018 v -0.015 h 0.016 l 0.003,-0.012 0.025,0.027 h 0.043 l 0.003,0.022 0.029,0.032 -0.019,0.006 -0.013,0.005 v 0.016 h -0.034 v 0.013 z m 0.25,-0.029 v -0.005 l -0.041,-0.026 v -0.061 h -0.013 v -0.031 h -0.012 l 0.059,-0.003 0.007,-0.019 0.005,0.016 0.032,0.003 0.003,0.003 0.006,0.031 h 0.018 v 0.027 h 0.013 l 0.009,0.048 -0.022,0.012 v 0.005 z m 0.606,-0.017 v -0.004 l -0.04,-0.012 -0.01,-0.01 -0.05,-0.022 -0.018,-0.025 v -0.039 l 0.071,0.003 0.108,-0.003 v -0.016 h 0.038 v -0.009 h 0.046 l 0.006,0.003 h 0.041 l 0.006,0.025 h 0.057 l 0.006,-0.019 h 0.047 l 0.006,0.019 0.034,0.003 v 0.012 h 0.026 l -0.009,0.034 -0.097,0.012 v -0.012 l -0.076,-0.003 v 0.015 l -0.031,0.008 v 0.014 h -0.056 v 0.01 l -0.068,0.002 v 0.02 z m -0.439,-0.016 -0.028,-0.01 -0.006,-0.022 h -0.021 l -0.004,-0.061 h -0.016 v -0.035 h 0.031 v -0.014 h 0.053 l 0.009,0.014 0.072,0.007 0.006,0.003 0.069,0.006 0.031,0.022 -0.006,0.031 -0.025,-0.019 v 0.019 h -0.029 l 0.004,0.027 -0.015,0.013 v 0.009 h -0.009 -0.041 l -0.029,0.01 z m 1.705,-0.078 -0.003,-0.012 -0.036,-0.003 -0.007,-0.019 -0.084,-0.006 -0.007,-0.003 -0.114,-0.007 v -0.014 h -0.088 l -0.01,-0.016 h -0.019 l -0.005,-0.017 H 86.23 v -0.024 l -0.016,-0.01 v -0.014 h -0.008 l -0.011,-0.019 h -0.04 v -0.013 l -0.019,-0.016 -0.052,-0.005 -0.003,-0.014 h -0.029 l -0.009,-0.012 h -0.015 l -0.013,-0.021 h -0.022 v -0.023 l -0.018,0.006 v -0.017 h -0.029 v -0.037 h -0.019 v -0.041 h -0.014 l 0.033,-0.04 -0.019,-0.013 -0.005,-0.013 -0.019,0.003 0.072,-0.034 v 0.013 l 0.022,0.005 0.024,0.026 h 0.066 l 0.022,0.021 v 0.012 h 0.015 l 0.003,0.02 0.028,0.018 v 0.003 l 0.015,0.01 0.007,0.018 0.025,0.029 h 0.012 v 0.017 l 0.044,0.017 v 0.021 l 0.025,0.012 h 0.041 v 0.019 h 0.058 l 0.006,0.016 h 0.047 v 0.013 l 0.009,0.019 h 0.075 v 0.03 h 0.031 v 0.018 h 0.013 l 0.011,0.017 h 0.048 l 0.005,0.016 0.039,0.014 -0.026,0.035 -0.009,0.015 z M 85.12,441.134 85.113,441.12 H 85.09 l 0.01,-0.032 v -0.011 h 0.013 v -0.014 l 0.102,-0.01 v -0.009 h 0.029 v -0.022 h 0.037 l -0.003,-0.012 0.028,-0.007 v -0.017 l 0.016,-0.008 0.039,-0.015 v -0.014 l 0.056,0.014 0.038,0.009 0.006,0.006 0.01,0.032 -0.016,0.01 -0.015,0.006 -0.013,0.037 -0.01,0.004 v 0.01 h -0.034 v 0.021 h -0.027 v 0.005 h -0.014 v 0.021 l -0.033,0.02 -0.024,0.006 z m 5.319,-0.447 -0.024,0.002 H 90.29 v -0.043 l -0.05,-0.016 v -0.022 h -0.012 v -0.053 l 0.028,-0.002 -0.022,-0.031 v -0.01 h -0.006 v -0.019 h -0.019 l -0.006,-0.021 h -0.016 v -0.078 l -0.024,-0.006 v -0.019 h -0.006 v -0.034 h -0.023 v -0.05 l 0.016,-0.006 v -0.062 h -0.016 l -0.009,-0.152 h -0.016 l -0.005,-0.029 H 90.1 l -0.01,-0.031 h -0.011 l -0.003,-0.02 -0.013,0.002 -0.007,-0.098 h -0.014 v -0.034 h -0.023 l -0.003,-0.018 H 90.01 l -0.012,-0.037 -0.013,-0.007 -0.003,-0.018 h -0.01 v -0.006 h -0.02 v -0.037 h -0.014 v -0.01 h -0.013 l -0.008,-0.038 h -0.012 l -0.004,-0.03 h -0.016 l -0.002,-0.012 h -0.017 l -0.005,-0.02 -0.023,-0.009 -0.004,-0.013 -0.017,0.007 -0.01,-0.016 -0.046,-0.012 v -0.003 H 89.7 v 0.003 l -0.033,0.012 v 0.009 h -0.032 v 0.013 l -0.019,0.009 v 0.02 h -0.067 v 0.024 l -0.013,0.003 0.005,0.031 -0.036,0.006 v 0.009 h -0.068 l 0.004,0.017 h -0.084 l -0.007,0.014 h -0.034 v 0.016 l -0.022,0.013 -0.006,0.018 -0.018,0.007 v 0.016 h -0.06 v 0.017 h -0.041 v 0.013 h -0.031 v 0.009 h -0.081 v 0.034 h -0.049 v 0.008 l -0.031,0.014 v 0.03 l -0.032,0.002 v 0.012 h -0.03 v 0.022 h -0.04 v 0.01 h -0.029 v 0.011 h -0.018 v 0.016 l -0.013,0.007 v 0.021 l -0.016,0.012 0.016,0.014 h 0.013 v 0.014 h 0.018 v 0.029 h 0.029 v 0.025 h 0.023 l 0.011,0.018 h 0.021 l 0.009,0.044 h 0.014 v 0.047 l -0.014,0.002 v 0.079 h 0.014 l 0.009,0.015 h 0.027 v 0.016 l 0.047,0.006 0.025,0.025 h 0.031 v 0.037 h 0.015 l 0.019,0.02 v 0.027 l -0.046,0.046 -0.009,-0.009 -0.014,-0.022 h -0.049 l -0.014,-0.015 -0.085,0.046 v 0.009 H 88.84 v -0.018 h -0.046 v 0.003 l -0.035,0.006 v 0.009 h -0.168 v 0.013 h -0.012 l 0.004,0.013 -0.058,0.002 0.012,0.013 -0.073,0.006 -0.006,-0.021 -0.016,0.015 h -0.02 v 0.016 h -0.091 l -0.004,-0.016 H 88.28 l -0.009,-0.075 h -0.038 l -0.015,-0.031 -0.009,0.025 h -0.043 l -0.082,-0.018 -0.115,-0.007 v 0.02 h -0.055 l -0.006,-0.023 h -0.019 l -0.014,-0.019 v -0.039 h -0.061 l 0.013,-0.032 -0.082,-0.012 -0.018,-0.022 v -0.009 h -0.038 l 0.019,-0.038 -0.003,-0.058 -0.016,-0.004 h -0.07 v -0.028 h -0.008 l -0.016,-0.066 H 87.59 v -0.009 l -0.053,-0.015 -0.004,-0.028 -0.031,-0.026 0.015,-0.018 0.064,-0.003 -0.017,-0.028 0.017,-0.018 -0.017,-0.002 v -0.018 l -0.015,-0.046 -0.034,0.031 -0.05,0.003 v -0.046 h -0.031 l -0.003,0.043 h -0.01 l -0.005,0.015 h -0.13 v -0.026 h -0.052 l 0.014,-0.057 h -0.047 v 0.083 h 0.014 l -0.026,0.031 -0.02,0.007 v 0.016 l -0.015,0.01 -0.011,0.005 v 0.009 l -0.023,0.009 v 0.023 l -0.018,0.003 -0.029,0.012 -0.003,0.016 -0.01,0.01 h -0.071 v 0.014 h -0.012 v 0.007 l -0.041,-0.031 -0.016,-0.006 v -0.013 l -0.015,-0.007 v -0.002 l -0.015,-0.003 -0.014,-0.012 v 0.012 H 86.82 v -0.012 h -0.052 v -0.032 H 86.75 v -0.035 h -0.013 -0.016 l -0.009,-0.011 -0.006,0.011 -0.016,-0.011 v 0.011 h -0.056 -0.05 l 0.003,-0.021 h -0.013 l 0.009,-0.034 0.001,-0.022 0.023,-0.01 -0.075,-0.022 -0.009,-0.034 0.003,-0.018 -0.02,-0.021 -0.024,0.03 h -0.044 l -0.003,-0.03 h -0.053 v -0.041 l -0.018,-0.006 h 0.053 l -0.022,-0.063 h -0.031 l 0.047,-0.034 v -0.013 h -0.032 l -0.03,-0.024 v 0.007 l -0.041,0.005 v 0.012 l -0.044,0.013 -0.006,-0.013 -0.056,0.007 -0.007,-0.019 H 86.177 V 439.6 h 0.018 l 0.022,-0.024 0.032,0.003 -0.022,-0.025 -0.013,-0.044 -0.037,0.023 -0.022,-0.09 -0.009,0.031 h -0.022 l -0.015,0.036 -0.031,0.023 v 0.021 h -0.016 v 0.025 h -0.019 l -0.012,0.021 -0.01,0.025 -0.024,-0.012 v -0.034 l -0.051,-0.006 v -0.032 H 85.9 l -0.009,-0.008 h -0.016 v -0.032 H 85.86 v -0.027 h -0.016 v -0.051 h 0.016 v -0.039 h 0.01 v -0.008 l 0.021,-0.006 -0.006,-0.037 -0.029,-0.006 -0.003,-0.012 -0.013,-0.012 h -0.02 l -0.007,-0.017 h -0.028 l -0.002,-0.006 h -0.029 l 0.006,-0.025 -0.022,-0.011 -0.003,-0.011 H 85.73 l -0.023,-0.049 h -0.021 l -0.007,-0.023 -0.015,0.003 v -0.036 h -0.013 v -0.01 l -0.022,-0.024 h -0.031 l -0.006,-0.003 h -0.018 l -0.007,-0.022 -0.07,-0.013 v -0.013 h -0.066 l -0.004,-0.018 h -0.05 v -0.015 h -0.078 l -0.008,-0.004 -0.035,-0.015 -0.006,0.009 -0.065,0.006 H 85.169 L 85.12,439 85.113,438.972 85.09,438.953 h -0.046 v -0.011 h -0.13 v -0.016 l -0.025,-0.009 -0.021,-0.009 -0.006,-0.013 -0.02,-0.004 -0.075,-0.009 -0.012,-0.01 -0.021,0.007 h -0.013 l -0.012,0.016 -0.039,-0.013 h -0.08 l -0.006,-0.016 h -0.037 l -0.003,-0.005 -0.044,-0.01 -0.002,-0.016 -0.023,-0.008 h -0.028 l -0.014,-0.029 h -0.017 l -0.012,-0.022 -0.013,-0.008 h -0.027 l -0.004,-0.014 -0.015,-0.015 -0.084,-0.02 -0.007,-0.009 -0.054,-0.003 -0.008,-0.017 h -0.018 v -0.014 l -0.013,-0.015 h -0.012 l -0.01,-0.022 -0.015,-0.006 v -0.013 h -0.012 l -0.007,-0.034 -0.063,-0.011 -0.005,0.115 -0.006,-0.014 -0.017,-0.025 h -0.02 l -0.019,-0.051 -0.013,-0.008 v -0.039 h 0.013 l 0.002,-0.029 h 0.014 l -0.016,-0.034 v -0.084 H 83.95 v -0.012 h -0.007 v -0.016 h -0.022 v -0.031 h -0.015 v -0.093 l 0.015,-0.015 h 0.017 v -0.026 l 0.012,-0.012 v -0.01 h 0.015 v -0.031 l 0.018,-0.015 0.008,-0.013 0.023,-0.007 v -0.027 l 0.02,-0.009 0.015,-0.01 -0.007,-0.022 0.039,-0.021 -0.026,-0.102 -0.041,0.011 v -0.024 h -0.023 l -0.004,-0.012 h -0.022 l 0.01,-0.025 0.012,-0.019 0.004,-0.015 0.023,-0.008 -0.006,-0.018 h 0.017 l 0.012,-0.003 v -0.03 l 0.022,-0.01 0.003,-0.031 0.006,0.005 0.003,-0.067 0.01,-0.01 0.024,-0.016 -0.003,-0.008 h 0.013 v -0.01 h 0.011 v -0.019 l 0.026,-0.004 0.012,-0.013 0.006,-0.054 h 0.03 v -0.019 h 0.017 0.016 v -0.032 l 0.012,-0.015 v -0.103 l 0.009,-0.009 0.007,-0.053 0.015,-0.006 0.004,-0.044 h 0.012 v -0.009 h 0.025 l -0.01,-0.021 0.019,-0.006 0.012,-0.013 0.007,-0.022 0.028,-0.022 v -0.025 h 0.011 v -0.009 h 0.02 v -0.129 h -0.02 l -0.002,-0.072 h 0.012 l -0.012,-0.035 v -0.022 H 84.37 l -0.006,-0.023 h -0.016 l -0.003,-0.002 H 84.28 l -0.014,0.002 -0.005,-0.055 h 0.019 l -0.004,-0.034 0.072,-0.006 v -0.013 h 0.034 v -0.016 h 0.028 v -0.012 h 0.023 v -0.018 l 0.008,0.003 v -0.012 h 0.05 v -0.017 l 0.037,-0.005 0.142,-0.016 0.026,0.016 0.031,-0.016 h 0.085 l 0.002,0.016 0.091,0.014 0.009,0.008 h 0.012 v 0.012 h 0.047 l 0.003,0.022 0.022,0.005 0.112,0.006 0.003,0.01 h 0.012 l 0.022,0.037 h 0.013 v 0.008 h 0.021 l 0.004,0.015 h 0.14 v 0.018 l 0.156,0.006 v 0.01 l 0.026,-0.01 h 0.104 v 0.01 l 0.018,-0.034 h 0.047 l 0.003,0.018 0.063,0.006 0.008,0.01 0.023,-0.01 h 0.14 v 0.01 h 0.025 l 0.034,0.03 0.021,-0.003 v 0.032 h 0.013 v 0.027 l 0.025,-0.005 0.021,0.04 h 0.026 l 0.006,0.01 h 0.062 v 0.009 l 0.068,0.005 v 0.019 l 0.081,0.013 0.003,0.004 h 0.043 l 0.008,0.023 h 0.03 l 0.009,0.01 h 0.023 l 0.006,0.013 h 0.133 0.131 l 0.003,0.009 0.041,0.006 0.009,0.019 h 0.05 v 0.009 h 0.081 v 0.025 l 0.05,-0.003 0.005,0.012 h 0.026 v 0.013 h 0.046 l 0.009,0.021 h 0.044 l 0.006,0.013 h 0.097 l 0.006,0.004 0.035,0.008 h 0.227 l 0.003,0.012 h 0.096 l -0.004,-0.012 0.06,-0.012 v -0.013 h 0.04 v -0.012 l 0.113,-0.007 0.003,0.019 0.018,-0.019 0.012,0.007 v -0.009 l 0.038,-0.013 v -0.009 h 0.059 l 0.009,0.022 h 0.045 v -0.022 h 0.033 l 0.007,-0.025 h 0.046 v -0.013 l 0.012,-0.021 -0.014,-0.009 -0.017,-0.013 -0.015,-0.01 0.015,-0.023 h 0.031 v -0.009 l 0.046,-0.006 v -0.014 L 88.069,437 v -0.053 l 0.015,-0.002 0.015,-0.013 v -0.005 h 0.016 v -0.11 l 0.015,-0.007 0.003,-0.016 h 0.054 v 0.008 h 0.012 v 0.033 h 0.019 l 0.006,0.016 h 0.022 l 0.025,0.027 h 0.009 v 0.014 h 0.025 l -0.01,0.008 h 0.036 l 0.005,0.025 0.019,0.007 0.034,0.013 v 0.002 l 0.06,0.025 0.009,0.01 h 0.046 v 0.009 l 0.016,0.012 h 0.017 l 0.007,0.029 0.028,0.014 -0.002,0.019 h 0.015 l 0.006,0.013 h 0.029 v 0.009 h 0.021 l 0.034,0.034 -0.003,-0.043 -0.031,-0.013 v -0.019 H 88.62 l 0.018,-0.043 H 88.62 v -0.012 h -0.035 l -0.002,-0.009 -0.013,-0.01 h -0.013 l -0.02,-0.025 -0.017,-0.05 h -0.016 l 0.016,-0.034 -0.016,-0.012 v -0.016 l -0.04,-0.009 v -0.016 h -0.066 l -0.003,-0.016 h -0.013 l -0.015,-0.024 0.066,-0.01 0.009,0.016 0.062,0.009 v 0.009 h 0.021 v 0.008 l 0.019,0.008 0.003,0.031 0.023,-0.006 v 0.028 h 0.013 l -0.004,0.029 0.022,0.005 0.002,0.013 h 0.017 l 0.009,0.017 0.022,-0.064 h 0.021 l -0.006,-0.053 h -0.015 v -0.025 l -0.013,-0.009 -0.018,-0.029 h -0.026 v -0.011 l -0.011,-0.007 0.068,-0.003 v 0.01 h 0.067 l -0.006,-0.01 h 0.033 v -0.022 l 0.02,-0.002 0.029,-0.02 v -0.041 l 0.018,-0.005 v -0.042 h -0.018 l -0.006,-0.008 -0.013,-0.021 h -0.019 v -0.037 h 0.019 l -0.007,-0.033 h 0.039 l 0.005,-0.031 0.003,-0.004 0.007,-0.018 0.031,-0.002 v -0.012 l 0.086,-0.007 v -0.01 l 0.014,-0.003 v -0.009 h 0.067 l 0.004,0.012 h 0.056 l 0.012,-0.012 0.015,0.012 h 0.044 v -0.008 h 0.016 v -0.014 h 0.056 v -0.015 h 0.093 v 0.015 h 0.034 l 0.007,0.014 h 0.031 v 0.008 h 0.018 v 0.017 h 0.031 l 0.004,0.014 h 0.033 v 0.013 h 0.014 v 0.016 h 0.017 v 0.015 h 0.031 l 0.005,0.009 h 0.008 l 0.01,0.013 0.01,-0.053 h 0.055 l -0.002,-0.027 h 0.013 v -0.017 h 0.032 v -0.008 h 0.046 l 0.007,0.008 h 0.031 l 0.01,0.017 0.056,0.01 0.007,0.004 h 0.031 v 0.013 l 0.03,0.005 0.004,0.011 h 0.016 l 0.006,0.015 0.027,0.004 v 0.012 h 0.034 v 0.016 h 0.013 l 0.003,0.012 0.044,0.019 0.01,0.016 h 0.062 v 0.012 h 0.068 l 0.004,0.012 h 0.095 l 0.007,0.011 0.05,0.012 v 0.009 h 0.023 l 0.007,0.002 h 0.031 v 0.022 h 0.028 l 0.006,0.035 h 0.014 l 0.002,0.034 0.021,-0.003 v 0.025 h 0.013 l 0.003,0.005 0.011,0.016 h 0.02 l 0.004,0.028 h 0.008 v 0.013 l 0.015,0.004 0.011,0.033 h 0.013 v 0.016 h 0.015 v 0.014 h 0.021 l 0.02,0.045 0.012,-0.01 0.019,0.032 h 0.018 v 0.015 h 0.019 v 0.025 l 0.031,0.004 0.006,0.015 0.031,0.032 h 0.02 v 0.02 h 0.014 v 0.022 h 0.013 v 0.022 h 0.017 l 0.008,0.006 0.035,0.038 0.005,0.015 h 0.019 v 0.022 h 0.009 l 0.013,0.009 h 0.013 l 0.028,0.04 h 0.027 v 0.009 h 0.015 v 0.034 H 91 v 0.01 l 0.018,0.019 0.013,0.009 0.014,0.007 0.022,0.009 0.014,0.018 h 0.043 v 0.019 l 0.015,0.009 h 0.016 v 0.016 h 0.031 l 0.02,0.022 h 0.021 v 0.022 h 0.012 l 0.003,0.031 h 0.009 l 0.009,0.027 0.026,0.01 v 0.015 l 0.018,0.004 0.006,0.01 h 0.017 l 0.002,0.018 0.019,0.019 0.015,0.01 0.013,0.044 h 0.015 v 0.008 h 0.013 l 0.009,0.062 0.012,-0.006 v 0.037 h 0.04 v 0.028 h 0.02 l -0.013,0.013 h 0.026 v 0.028 h 0.014 v 0.013 l 0.016,0.002 0.01,0.028 0.015,0.003 -0.003,0.016 h 0.009 l 0.007,0.022 0.021,0.003 v 0.044 h 0.011 v 0.008 h 0.018 v 0.013 l 0.015,0.004 0.009,0.011 0.013,0.022 h 0.008 l 0.007,0.057 h 0.016 l 0.016,0.033 -0.016,0.01 0.003,0.065 h 0.015 v 0.028 h -0.015 l 0.004,0.028 -0.014,0.003 0.014,0.032 v 0.021 h 0.018 v 0.037 h 0.018 v 0.056 h 0.014 l 0.006,0.057 h 0.014 l 0.003,0.083 h 0.01 l 0.006,0.032 -0.016,0.015 -0.017,0.015 v 0.02 l -0.02,0.008 0.01,0.033 -0.013,0.002 v 0.017 h -0.037 l -0.003,0.057 -0.016,0.014 v 0.017 h -0.062 v 0.026 l -0.019,-0.014 0.019,0.032 -0.016,0.02 v 0.015 l -0.052,-0.015 0.003,0.108 h 0.018 v 0.029 h 0.016 l -0.077,0.044 v 10e-4 l -0.026,0.01 v 0.028 h -0.047 l -0.006,-0.059 -0.006,0.02 h -0.037 l 0.002,10e-4 v 0.141 l -0.005,0.012 -0.01,0.055 -0.013,0.003 v 0.017 h -0.018 v 0.003 l -0.028,0.01 -0.006,0.05 h 0.025 v 0.042 h -0.019 v 0.017 h -0.065 l 0.003,0.024 h -0.046 l 0.006,0.018 h -0.028 l -0.013,0.017 -0.022,-0.017 -0.013,0.017 v 0.052 H 91.04 l 0.005,0.015 h -0.051 v 0.014 h -0.05 v 0.017 h -0.02 v 0.014 l -0.018,0.006 0.021,0.021 -0.003,0.078 -0.018,-0.013 -0.003,0.056 h 0.003 l 0.01,0.02 h 0.016 v 0.114 l -0.016,0.006 v 0.054 l -0.035,0.006 v 0.018 l -0.012,0.006 v 0.02 h -0.012 l 0.003,0.139 -0.023,0.009 v 0.078 h 0.023 l 0.002,0.062 0.015,0.005 -0.015,0.011 -0.029,0.009 v 0.019 h -0.027 l -0.012,0.028 H 90.77 v 0.014 l -0.026,0.005 -0.001,0.04 -0.061,-0.018 -0.006,-0.006 -0.013,-0.016 -0.012,-0.005 -0.006,-0.014 h -0.047 v 0.004 l -0.025,0.015 0.008,0.049 h -0.014 v 0.06 l -0.016,-0.013 0.016,0.028 v 0.069 l -0.016,0.002 0.007,0.128 h -0.024 l -0.015,0.04 -0.012,0.004 0.012,0.059 -0.046,0.016 v 0.002 z m -2.682,-0.02 -0.018,0.022 -0.05,-0.027 v -0.007 h -0.031 l -0.006,-0.011 -0.062,0.018 v -0.041 l 0.005,-0.005 v -0.017 l 0.016,-0.012 0.047,-0.019 v -0.013 h 0.059 l 0.007,0.013 0.025,0.006 0.002,0.025 h 0.028 l -0.006,0.009 h 0.022 v 0.022 h 0.015 v 0.037 h -0.015 v 0.022 z" /></clipPath></defs><sodipodi:namedview
   id="namedview11"
   pagecolor="#ffffff"
   bordercolor="#666666"
   borderopacity="1.0"
   inkscape:pageshadow="2"
   inkscape:pageopacity="0.0"
   inkscape:pagecheckerboard="0"
   showgrid="false"
   inkscape:zoom="0.5"
   inkscape:cx="427"
   inkscape:cy="146"
   inkscape:window-width="1366"
   inkscape:window-height="705"
   inkscape:window-x="-8"
   inkscape:window-y="-8"
   inkscape:window-maximized="1"
   inkscape:current-layer="Layer_1"
   inkscape:showpageshadow="2"
   inkscape:deskcolor="#d1d1d1" />
<style
   type="text/css"
   id="style2">
	.st0{fill:#000A3C;}
</style>

<style
   type="text/css"
   id="style4835">
	.st0{fill-rule:evenodd;clip-rule:evenodd;fill:#E30613;}
</style><g
   id="g414"><path
     id="path2131"
     style="display:inline;opacity:1;fill:#d40000;fill-opacity:1;fill-rule:evenodd;stroke-width:29.2152;stroke-miterlimit:9;paint-order:stroke fill markers"
     d="m 452.62088,13.489701 c 70.20516,0 126.72412,56.518958 126.72412,126.724129 0,70.20516 -56.51896,126.72412 -126.72412,126.72412 -70.20517,0 -126.72412,-56.51896 -126.72412,-126.72412 0,-70.205171 56.51895,-126.724129 126.72412,-126.724129 z" /><path
     id="path2615"
     style="opacity:1;fill:#ffffff;fill-opacity:1;fill-rule:evenodd;stroke-width:28.6779;stroke-miterlimit:9;paint-order:stroke fill markers"
     d="M 523.7793 35.224609 L 463.25977 73.720703 L 500.35156 73.720703 L 439.94141 234.60547 L 499.49805 234.60547 L 560.16797 73.03125 C 550.8015 58.025844 538.3995 45.12927 523.7793 35.224609 z " /><path
     id="path2446"
     style="font-weight:bold;font-size:366.153px;line-height:1.25;font-family:'Myriad Pro';-inkscape-font-specification:'Myriad Pro Bold';letter-spacing:-14.8292px;fill:#000000;stroke-width:10.0696;opacity:1"
     d="M 86.195447,2.48734e-7 26.181114,16.514769 V 53.570774 H 0 v 45.11096 h 26.181114 v 80.557586 c 0,27.79208 5.639669,46.72422 16.917616,58.40495 9.666813,10.06959 26.180247,17.31845 45.916655,17.31845 17.319705,0 31.820275,-2.41558 39.875945,-5.63786 l -0.40285,-46.32152 c -6.04174,1.20836 -9.66769,1.61139 -18.12616,1.61139 -18.528059,0 -24.166873,-10.87468 -24.166873,-34.63891 V 98.681734 H 129.89654 L 185.17136,250.5334 h 61.22288 L 319.70257,53.570774 H 255.2569 l -25.37542,91.432476 c -4.43063,16.91694 -7.65464,31.82155 -10.87691,47.93291 h -1.20653 c -2.81947,-15.70857 -6.44635,-31.41876 -11.27975,-47.93291 L 179.93433,53.570774 H 86.195447 Z"
     sodipodi:nodetypes="ccccccscsccssccccccccccccc" /><path
     d="m 609.79651,250.53242 h 61.22327 V 136.94715 c 0,-5.63898 0.80557,-11.27797 2.4167,-15.30581 4.02785,-11.27798 14.09747,-22.958726 31.01443,-22.958726 22.15315,0 31.01441,17.319736 31.01441,42.695176 v 109.15463 h 61.22327 V 133.72488 c 0,-58.000994 -30.20885,-84.584781 -70.48731,-84.584781 -32.62557,0 -52.7648,18.930879 -60.82049,31.417202 h -1.20836 L 661.35294,53.57073 h -53.16757 c 0.80557,17.31974 1.61114,38.264542 1.61114,62.83441 z"
     id="path2450"
     style="font-weight:bold;font-size:366.153px;line-height:1.25;font-family:'Myriad Pro';-inkscape-font-specification:'Myriad Pro Bold';letter-spacing:-14.8292px;fill:#000000;stroke-width:10.0696;opacity:1" /><path
     d="M 997.98612,171.58663 C 998.79169,167.156 1000,157.89195 1000,147.41955 c 0,-48.736936 -24.16703,-98.279451 -87.80701,-98.279451 -68.47339,0 -99.4878,55.181501 -99.4878,105.126791 0,61.62605 38.26453,100.69617 105.12678,100.69617 26.58379,0 51.15366,-4.43064 71.29289,-12.48633 l -8.05569,-41.48682 c -16.51418,5.2362 -33.43113,8.05569 -54.37593,8.05569 -28.59772,0 -53.57036,-12.08354 -55.58429,-37.45897 z m -127.27995,-41.8896 c 1.61114,-16.51417 12.08354,-39.875681 37.86175,-39.875681 28.19493,0 34.63948,24.972651 34.63948,39.875681 z"
     id="path2452"
     style="font-weight:bold;font-size:366.153px;line-height:1.25;font-family:'Myriad Pro';-inkscape-font-specification:'Myriad Pro Bold';letter-spacing:-14.8292px;fill:#000000;stroke-width:10.0696;opacity:1" /></g></svg>
